<?xml version="1.0" encoding="UTF-8"?>
<svg viewBox="0 0 272.5 187.5" xmlns="http://www.w3.org/2000/svg">
 <g transform="matrix(1.25,0,0,-1.25,0,187.5)">
  <g transform="scale(.24)">
   <path d="m272.36 442.82c11.848 10.985 30.973 8.395 43.805 10.614-15.301 14.687-38.867 21.105-50.59 6.664 13.449 13.453 9.992 21.105 2.219 31.472-13.078-3.086-14.188-12.961-21.344-19.992-7.898 14.438-22.336 20.239-43.062 17.399 14.312-6.539 24.55-18.633 35.164-41.711 11.351-1.485 22.582-2.965 33.808-4.446" fill="#8fdbf8"/>
   <path d="m311.727,433.809c-11.352,7.652-21.719,19.375-33.934,22.953-9.379-1.481-18.633-2.961-27.887-4.567 4.196,8.395-4.687,12.098-10.859,16.664-15.422,4.071-28.379,1.602-40.102-3.949 10.985.492 21.223-.371 26.778-10.367-8.02-15.18-8.145-32.211-4.688-49.984 5.305-6.293 11.473-8.516 18.629-6.539 17.027,5.55 28.133,18.265 33.441,38.132 10.489,5.184 24.305,1.977 38.622-2.343" fill="#0fb2f0"/>
   <path d="m311.6 433.32c-5.922 13.946-38.622 32.579-54.043 18.262-16.661-28.629-42.325-28.012-38.254-17.894-3.946-4.688 5.058-35.047 16.66-37.516 9.008 4.441 18.015 9.008 27.144 13.453 4.813 5.797 8.02 12.461 7.528 20.977 5.304 12.961 40.965 3.211 40.965 2.718" fill="#0085bc"/>
   <path d="m270.512,419.863c-6.66-15.675-7.528-24.437-27.762-27.89 5.676-6.418 1.359-13.7-7.156-16.91-8.391-4.196-13.574-1.356-20.114,2.714-6.539,3.582.372,19.129 2.715,21.969-10.488,10.367-12.461,23.57-7.773,37.024 13.449-7.774 12.957-13.575 14.93-27.766 2.589,13.82 4.07,13.574 15.671,19.25 3.086-9.75 8.883-12.957-.863-23.199 6.043,4.687 30.352,13.82 30.352,14.808" fill="#008a5b"/>
   <path d="m211.28 435.54c5.43-5.555 9.996-15.305 13.574-29.125-0.988 6.543-1.976 13.082-2.839 19.621-1.852 6.051-7.157 6.297-10.735 9.504" fill="#005d28"/>
   <path d="m239.3 428.01c2.711-1.727 8.266-6.172 8.141-13.207-2.344-4.563-4.934-7.899-8.637-11.106 3.207 7.282 4.691 16.785 0.496 24.313" fill="#005d28"/>
   <path d="m238.68 396.17c23.566-16.539-10.242-32.457-22.457-17.773 12.586-0.247 21.222 2.347 22.457 17.773" fill="#005d28"/>
   <path d="m243.61 390.61c4.567 2.098 9.133 4.075 13.696 6.172 4.691 3.949 7.773 10.117 9.871 16.168-8.637-7.531-17.52-14.687-28.008-17.527l4.441-4.813" fill="#005d28"/>
   <path d="m226.215,395.18c-2.961.617-6.047-1.977-6.91-5.801s.742-7.527 3.703-8.145 6.047,1.973 6.91,5.801c.863,3.824-.863,7.528-3.703,8.145" fill="#80d190"/>
   <path d="m258.172,459.109c2.348-.617 3.949-1.976 3.703-3.086s-2.344-1.605-4.687-1.113c-2.344.496-4.075,1.977-3.825,3.086s2.465,1.606 4.809,1.113" fill="#fff870"/>
   <path d="m262.738,462.316c2.715-.617 4.692-1.726 4.442-2.589-.121-.868-2.465-1.114-5.059-.497-2.715.618-4.687,1.852-4.441,2.715 .125.743 2.468.989 5.058.371" fill="#c6bc00"/>
   <path d="m252.496,467.375c2.715-.617 4.813-1.973 4.567-2.961-.122-.988-2.59-1.234-5.43-.617s-4.813,1.976-4.688,2.961c.246.988 2.715,1.234 5.551.617" fill="#c6bc00"/>
   <path d="m246.57 452.44c-1.109 4.442 3.703 4.813-1.851 9.129-7.157 5.309-22.578 5.555-41.828 3.582 18.14-1.48 29.859 0.739 43.679-12.711" fill="#0085bc"/>
   <path d="m233.87 376.05c-30.726-29.496-52.687-81.207-45.531-139.09-3.824-0.496-7.652-1.113-11.602-1.606 2.84 49.614 9.504 98.485 43.434 141.06 0 0 13.453-1.359 13.699-0.371" fill="#005d28"/>
   <path d="m277.18 516.74c-6.539 4.321-9.254 5.555-19.004 9.008-10.609 3.457-15.668 3.211-8.387-5.555 4.195-3.207 8.883-6.047 14.68-8.636 3.949-1.481 18.387-3.579 17.277-0.618-0.496 1.481-5.922 4.442-4.566 5.801" fill="#9ee0f9"/>
   <path d="m280.137,513.41-29.86,12.34-2.343.371 32.203-12.711" fill="#fff"/>
   <path d="m265.08 519.09-5.18 4.691-5.554 2.59 5.429-2.715 5.305-4.566" fill="#fff"/>
   <path d="m255.46 526 5.426-4.812-1.231 0.617-4.195 4.195" fill="#fff"/>
   <path d="m262.86 520.32-5.429-1.726-8.883 4.687 8.883-4.32s5.429 1.234 5.429 1.359" fill="#fff"/>
   <path d="m270.51 517.23-8.758-1.234-4.445 2.961 4.445-2.465 8.758 0.738" fill="#fff"/>
   <path d="m271.25 517.23-6.172 4.692-4.809 1.851 4.688-2.222 6.293-4.321" fill="#fff"/>
   <path d="m265.7 516.5-5.058 3.699-0.121-0.367 5.179-3.332" fill="#fff"/>
   <path d="m276.93 514.4-7.528-2.839-7.773 4.566 7.527-4.074 7.774 2.347" fill="#fff"/>
   <path d="m261.63 515.75-4.938 0.863-6.539 5.309 6.293-4.813 5.184-1.359" fill="#fff"/>
   <path d="m265.7 516.62 8.641-3.453 0.246 0.367-8.887 3.086" fill="#fff"/>
   <path d="m264.465,508.473c-1.848.617-3.945,2.097-6.539,3.207-3.332-.985-7.156-2.59-10.61-3.95 .247-.246.493-.367.739-.613 3.457,1.848 6.539,3.332 9.996,3.699l6.414-2.343" fill="#231f20"/>
   <path d="m278.28 511.07c12.219 8.516 40.969 9.747 37.141-9.503-2.836-3.086-9.5-3.086-13.571-1.727-9.007 6.293-12.957 4.07-21.964 4.566-2.715 1.231-3.332 3.453-1.606 6.664" fill="#863b22"/>
   <path d="m304.445,498.969c-3.332.617-7.527,1.48-12.832,5.062-3.824.617-9.254-1.113-12.215,0l2.219.739c7.899,3.582 13.203,2.097 20.113-2.219 4.321-2.223 8.02-2.223 13.329-.988 .121-1.481-5.309-3.829-10.614-2.594" fill="#231f20"/>
   <path d="m295.563,501.934c6.539,7.402 15.296,14.562 10.734,14.191-1.113.246-1.606.492-2.84.738-.121-1.601-3.207-6.293-9.254-14.437l1.36-.492" fill="#e2d600"/>
   <path d="m291.121,504.031c-1.976-.125-4.32-.742-5.68,0 3.086,4.567 2.348,7.899.743,9.75 2.714.617 5.429,1.231 8.265,1.852 2.348.738.371-10.246-3.328-11.602" fill="#e2d600"/>
   <path d="m274.83 517.85c-5.184 0-9.5-3.579-9.5-8.02 0-4.445 4.316-8.023 9.5-8.023s9.379 3.578 9.379 8.023c0 4.441-4.195 8.02-9.379 8.02" fill="#9e644e"/>
   <path d="m267.43,507.855-2.348-3.703 2.348,1.606-.496-3.949 2.097,2.343-.246-4.687 2.098,4.687 .988-4.933 .492,4.687 1.852-5.554 1.109,4.445 1.977-4.445 .121,4.816 2.469-4.566-.989,4.687 3.95-4.566-3.704,6.047 6.79-2.715-5.555,3.828-12.953,1.972" fill="#9e644e"/>
   <path d="m269.9 511.56-2.098 3.949 3.086-2.715-2.344 4.812 3.949-3.949-3.086 4.442 2.84-2.344v3.949l1.602-3.703v4.195l1.851-3.453 1.727 3.703v-3.703l3.207 2.715-2.344-2.098-3.207-2.714-5.183-3.086" fill="#9e644e"/>
   <path d="m278.54 517.11c6.906 4.567 9.746 5.801 19.863 9.379 11.106 3.703 16.29 3.332 8.637-5.801-4.316-3.332-9.129-6.293-15.176-8.886-4.07-1.606-19.25-3.825-18.015-0.739 0.496 1.481 6.172 4.688 4.691 6.047" fill="#cfeffc"/>
   <path d="m275.45 513.66 31.094 12.836 2.469 0.371-33.563-13.207" fill="#fff"/>
   <path d="m291.12 519.58 5.426 4.934 5.801 2.593-5.551-2.839-5.676-4.688" fill="#fff"/>
   <path d="m301.11 526.74-5.55-4.937 1.234 0.617 4.316 4.32" fill="#fff"/>
   <path d="m293.59 520.94 5.555-1.852 9.254 4.812-9.254-4.566s-5.555 1.359-5.555 1.606" fill="#fff"/>
   <path d="m285.44 517.6 9.258-1.234 4.563 3.086-4.563-2.594-9.258 0.742" fill="#fff"/>
   <path d="m284.83 517.6 6.414 4.813 5.059 1.977-5.059-2.348-6.414-4.442" fill="#fff"/>
   <path d="m290.5 516.86 5.305 3.828 0.121-0.371-5.426-3.457" fill="#fff"/>
   <path d="m278.9 514.64 7.774-2.965 8.023 4.816-7.777-4.195-8.02 2.344" fill="#fff"/>
   <path d="m294.82,516.125 5.059.863 6.91,5.555-6.539-5.063-5.43-1.355" fill="#fff"/>
   <path d="m290.5 516.99-9.008-3.578-0.25 0.371 9.258 3.207" fill="#fff"/>
   <path d="m313.453,511.68c.863-2.961-7.402-7.528-13.574-11.723l1.976-.492c7.157,3.824 17.645,5.305 11.598,12.215" fill="#e2d600"/>
   <path d="m298.152,500.574c7.899,5.555 14.809,10.86 14.313,12.465-.492,1.234-2.469,1.481-3.453,2.098 .492-3.578-5.926-8.516-12.34-13.946l1.48-.617" fill="#e2d600"/>
   <path d="m270.76 510.2c-3.453 3.332-6.785 2.84-10.363-0.367-2.098-6.297 4.687-11.602 9.625-13.328 4.812 5.059 2.714 9.996 0.738 13.695" fill="#863b22"/>
   <path d="m263.973,510.695c.988.618 2.715-.496 3.949-2.593 1.234-1.973 1.48-4.196.617-4.813-.988-.617-2.715.617-3.949,2.594-1.235,2.097-1.481,4.195-.617,4.812" fill="#231f20"/>
   <path d="m261.01 509.83c1.109-6.047 4.32-10.613 9.254-12.836-5.059 1.606-8.762 5.184-9.993 10.734l0.739 2.102" fill="#fab63d"/>
   <path d="m263.73 509.34 4.07-3.332-3.332 1.726-0.738 1.606" fill="#fff"/>
   <path d="m281.988,510.199c.125-1.109-.125-3.578-1.359-5.429-3.945-2.219-5.551-1.727-6.539-1.11 5.926.492 8.144,3.949 7.898,6.539" fill="#231f20"/>
   <path d="m285.195,503.906c1.481-.246 3.703-.617 6.293.125 2.223,1.602 3.086,4.321 3.211,5.676-1.484-2.84-6.91-5.184-9.504-5.801" fill="#c6bc00"/>
   <path d="m294.082,502.426c2.465,2.84 4.688,4.074 8.266,6.418-2.098-2.223-4.813-4.938-6.785-7.16-.743,0-1.36.496-1.481.742" fill="#c6bc00"/>
   <path d="m296.43 501.19c2.961 2.223 6.168 2.715 9.008 4.692l-7.157-5.434-1.851 0.742" fill="#c6bc00"/>
   <path d="m300.25,500.082c2.836.492 6.418,1.852 9.625,3.086-2.715-1.359-5.309-2.719-8.145-3.703l-2.097.863 .617-.246" fill="#c6bc00"/>
   <path d="m265.453,508.844c-1.973,0-4.441.617-7.281.738-2.711-2.098-5.551-5.059-8.387-7.527 .246-.121.617-.121.985-.246 2.468,2.839 4.691,5.429 7.898,7.035h6.785" fill="#231f20"/>
   <path d="m432.28 554.26c-6.664 4.32-9.379 5.555-19.004 9.012-10.609 3.453-15.668 3.207-8.39-5.555 4.195-3.207 8.762-6.047 14.683-8.641 3.829-1.48 18.387-3.578 17.153-0.617-0.492 1.484-5.922 4.445-4.442 5.801" fill="#9ee0f9"/>
   <path d="m435.24 550.93-29.859 12.344-2.344 0.371 32.203-12.715" fill="#fff"/>
   <path d="m420.18 556.6-5.18 4.688-5.555 2.594 5.305-2.715 5.43-4.567" fill="#fff"/>
   <path d="m410.56 563.52 5.425-4.813-1.234 0.617-4.191 4.196" fill="#fff"/>
   <path d="m417.84 557.84-5.305-1.731-9.008 4.692 9.008-4.321s5.305 1.235 5.305 1.36" fill="#fff"/>
   <path d="m425.61 554.75-8.883-1.234-4.441 2.96 4.441-2.468 8.883 0.742" fill="#fff"/>
   <path d="m426.23 554.75-6.167 4.687-4.813 1.852 4.813-2.219 6.167-4.32" fill="#fff"/>
   <path d="m420.8 554.01-5.059 3.703-0.246-0.371 5.305-3.332" fill="#fff"/>
   <path d="m431.91 551.91-7.527-2.84-7.649 4.567 7.528-4.071 7.648 2.344" fill="#fff"/>
   <path d="m416.73,553.273-4.937.864-6.66,5.304 6.293-4.812 5.304-1.356" fill="#fff"/>
   <path d="m420.8 554.14 8.64-3.457 0.122 0.371-8.762 3.086" fill="#fff"/>
   <path d="m419.445,545.867c-1.726.742-3.824,2.223-6.418,3.332-3.332-.988-7.156-2.59-10.734-3.949 .371-.246.617-.371.863-.617 3.332,1.726 6.418,3.332 9.996,3.703l6.293-2.469" fill="#231f20"/>
   <path d="m433.39 548.58c12.218 8.516 40.718 9.75 36.894-9.504-2.715-3.082-9.5-3.082-13.574-1.726-8.758 6.293-12.707 4.074-21.715 4.566-2.715 1.234-3.332 3.457-1.605 6.664" fill="#863b22"/>
   <path d="m459.422,536.488c-3.332.617-7.402,1.481-12.707,5.059-3.824.617-9.379-1.109-12.34,0l2.344.742c7.773,3.578 13.203,2.098 19.988-2.223 4.195-2.222 8.023-2.222 13.203-.988 .25-1.48-5.18-3.824-10.488-2.59" fill="#231f20"/>
   <path d="m450.664,539.449c6.414,7.406 15.176,14.563 10.609,14.192-1.234.25-1.601.496-2.835.742-.125-1.606-3.333-6.293-9.133-14.438l1.359-.496" fill="#e2d600"/>
   <path d="m446.219,541.547c-1.973-.121-4.317-.738-5.797,0 3.082,4.566 2.469,7.898.738,9.625 2.84.742 5.555,1.359 8.391,1.976 2.222.743.246-10.242-3.332-11.601" fill="#e2d600"/>
   <path d="m429.81 555.37c-5.18 0-9.375-3.582-9.375-8.023s4.195-8.02 9.375-8.02 9.504 3.578 9.504 8.02-4.321 8.023-9.504 8.023" fill="#9e644e"/>
   <path d="m422.531,545.375-2.347-3.703 2.347,1.605-.496-3.949 2.098,2.344-.371-4.692 2.097,4.692 1.114-4.938 .492,4.692 1.851-5.555 .989,4.442 2.097-4.442v4.813l2.59-4.567-.988,4.692 3.824-4.567-3.578,6.047 6.789-2.715-5.676,3.824-12.832,1.977" fill="#9e644e"/>
   <path d="m425 549.07-2.098 3.949 3.086-2.714-2.343 4.812 3.949-3.949-3.211 4.445 2.961-2.344v3.95l1.484-3.703v4.195l1.848-3.457 1.851 3.703v-3.703l3.086 2.715-2.343-2.098-3.086-2.715-5.184-3.086" fill="#9e644e"/>
   <path d="m433.63 554.63c6.91 4.566 9.625 5.801 19.621 9.379 11.105 3.703 16.41 3.332 8.762-5.801-4.321-3.332-9.133-6.293-15.18-8.883-4.07-1.605-19.125-3.828-17.891-0.742 0.496 1.481 6.172 4.691 4.688 6.047" fill="#cfeffc"/>
   <path d="m430.55 551.17 30.969 12.836 2.468 0.371-33.437-13.207" fill="#fff"/>
   <path d="m446.22 557.1 5.429 4.937 5.676 2.59-5.551-2.836-5.554-4.691" fill="#fff"/>
   <path d="m456.09,564.254-5.426-4.934 1.234.618 4.192,4.316" fill="#fff"/>
   <path d="m448.57 558.46 5.43-1.852 9.375 4.813-9.254-4.566s-5.551 1.355-5.551 1.605" fill="#fff"/>
   <path d="m440.54 555.12 9.254-1.23 4.445 3.082-4.445-2.59-9.254 0.738" fill="#fff"/>
   <path d="m439.8 555.12 6.414 4.817 5.062 1.972-4.937-2.344-6.539-4.445" fill="#fff"/>
   <path d="m445.6 554.38 5.18 3.824 0.246-0.367-5.426-3.457" fill="#fff"/>
   <path d="m434 552.16 7.773-2.961 8.02 4.813-7.77-4.196-8.023 2.344" fill="#fff"/>
   <path d="m449.8 553.64 5.062 0.867 6.907 5.551-6.661-5.059-5.308-1.359" fill="#fff"/>
   <path d="m445.6 554.51-9.007-3.582-0.25 0.371 9.257 3.211" fill="#fff"/>
   <path d="m468.43 549.2c0.863-2.961-7.403-7.527-13.571-11.722l1.848-0.497c7.281 3.829 17.77 5.309 11.723 12.219" fill="#e2d600"/>
   <path d="m453.008,538.094c8.019,5.551 14.93,10.859 14.437,12.465-.496,1.23-2.468,1.48-3.578,2.097 .492-3.582-5.801-8.515-12.094-13.945l1.235-.617" fill="#e2d600"/>
   <path d="m425.859,547.719c-3.578,3.332-6.785,2.84-10.363-.371-2.098-6.293 4.567-11.602 9.625-13.328 4.813,5.058 2.59,9.996.738,13.699" fill="#863b22"/>
   <path d="m419.074,548.211c.864.617 2.715-.492 3.949-2.59 1.235-1.976 1.481-4.195.493-4.812-.864-.618-2.59.617-3.95,2.589-1.23,2.098-1.48,4.196-.492,4.813" fill="#231f20"/>
   <path d="m416.11 547.35c1.11-6.047 4.196-10.614 9.254-12.836-5.058 1.605-8.883 5.183-9.996 10.738l0.742 2.098" fill="#fab63d"/>
   <path d="m418.83 546.86 4.07-3.332-3.453 1.727-0.617 1.605" fill="#fff"/>
   <path d="m437.09,547.719c.125-1.11-.125-3.578-1.356-5.43-3.949-2.223-5.554-1.73-6.543-1.113 5.801.496 8.145,3.949 7.899,6.543" fill="#231f20"/>
   <path d="m440.176,541.426c1.601-.25 3.824-.617 6.414.121 2.223,1.605 2.961,4.32 3.207,5.68-1.481-2.84-7.031-5.184-9.621-5.801" fill="#c6bc00"/>
   <path d="m449.184,539.945c2.464,2.836 4.562,4.071 8.14,6.414-2.097-2.218-4.812-4.933-6.785-7.156-.617,0-1.234.492-1.355.742" fill="#c6bc00"/>
   <path d="m451.4 538.71c2.84 2.219 6.172 2.715 9.008 4.687l-7.156-5.429-1.852 0.742" fill="#c6bc00"/>
   <path d="m455.105,537.598c2.961.496 6.415,1.851 9.625,3.086-2.593-1.356-5.183-2.715-8.023-3.704l-2.219.864 .617-.246" fill="#c6bc00"/>
   <path d="m420.555,546.359c-1.973,0-4.442.618-7.282.743-2.71-2.098-5.675-5.059-8.511-7.528 .371-.125.738-.125.988-.246 2.465,2.836 4.813,5.43 8.02,7.031h6.785" fill="#231f20"/>
   <path d="m495.45 91.336c-15.422 76.269 9.254 283.48 30.723 402.57-13.449-124.4-34.176-230.16-13.571-386.65-9.132-1.606-8.144-14.317-17.152-15.922" fill="#009748"/>
   <path d="m517.05 111.82c-7.527 28.633 23.691 101.94 47.383 143.77-17.77-44.305-40.102-80.957-33.071-139.09-7.031 0-7.031-4.688-14.312-4.688" fill="#009748"/>
   <path d="m483.61 98.863c6.661 67.137-20.484 239.55-40.968 337.66 15.3-103.79 34.675-190.55 28.504-326.68 6.293 0 6.171-10.985 12.464-10.985" fill="#009748"/>
   <path d="m557.52 122.19c9.128 28.508-28.133 101.94-56.516 143.65 21.226-44.184 47.754-80.961 39.363-139.09 8.637 0.121 8.516-4.692 17.153-4.567" fill="#009748"/>
   <path d="m527.78 101.58c-10.609 42.453 6.418 157.96 21.223 224.36-9.379-69.359-23.566-128.35-9.379-215.48-6.289-0.863-5.551-8.02-11.844-8.883" fill="#009748"/>
   <path d="m579.36 113.06c12.461 65.16-7.527 242.5-24.925 344.44 10.98-106.51 27.761-196.97 10.98-330.87 7.406-1.356 6.539-12.34 13.945-13.574" fill="#009748"/>
   <path d="m456.09 123.67c12.586 65.285-7.277 242.5-24.676 344.44 10.981-106.51 27.516-196.97 10.981-330.87 7.402-1.234 6.664-12.219 13.695-13.574" fill="#009748"/>
   <path d="m499.52 118.24c17.153 27.891-10.238 103.17-34.3 146.61 15.054-45.292 38.129-83.675 15.175-140.81 10.118-0.496 9.008-5.184 19.125-5.801" fill="#009748"/>
   <path d="m642.41 71.344c-33.066 88.734 19.867 329.88 66.016 468.6-28.996-144.89-73.418-267.93-29.246-450.21-19.371-1.7305-17.274-16.664-36.77-18.391" fill="#005d28"/>
   <path d="m688.93 95.164c-16.41 33.195 50.465 118.72 101.18 167.35-38.004-51.465-85.632-94.289-70.578-161.92-15.301 0-15.301-5.5549-30.601-5.4299" fill="#005d28"/>
   <path d="m617.12 79.984c14.313 78.118-43.929 279.04-88.101 393.19 33.066-120.82 74.527-221.9 61.449-380.36 13.449 0 13.324-12.832 26.652-12.832" fill="#005d28"/>
   <path d="m775.3 107.13c19.496 33.324-60.336 118.72-120.92 167.35 45.41-51.46 102.29-94.285 84.277-161.92 18.383 0 18.383-5.43 36.645-5.43" fill="#005d28"/>
   <path d="m711.76 83.191c-22.828 49.489 13.57 183.89 45.406 261.27-19.988-80.836-50.59-149.45-20.113-251.02-13.449-0.9844-11.969-9.2539-25.293-10.242" fill="#005d28"/>
   <path d="m822.19 96.52c26.774 75.898-16.043 282.37-53.55 400.97 23.566-123.91 59.472-229.3 23.687-385.17 15.797-1.48 14.07-14.316 29.863-15.796" fill="#005d28"/>
   <path d="m558.38 108.98c26.773 75.899-16.164 282.25-53.551 400.97 23.566-124.03 59.473-229.3 23.691-385.17 15.793-1.605 14.067-14.316 29.86-15.797" fill="#005d28"/>
   <path d="m651.3 102.69c36.769 32.332-22.09 120.08-73.418 170.68 32.203-52.82 81.559-97.496 32.449-164.02 21.719-0.496 19.25-6.046 40.969-6.664" fill="#005d28"/>
   <path d="m176.37 155.14c-33.07 88.488 19.742 329.76 65.891 467.86-28.996-144.27-73.293-267.31-29.121-449.47-19.496-1.73-17.399-16.66-36.77-18.39" fill="#005d28"/>
   <path d="m222.76 178.96c-16.289 33.074 50.465 118.48 101.18 167.22-37.882-51.586-85.632-94.286-70.578-161.79-15.3 0-15.179-5.555-30.601-5.43" fill="#005d28"/>
   <path d="m151.07 163.78c14.192 77.996-43.925 278.79-88.101 393.07 33.07-120.82 74.531-221.9 61.449-380.36 13.328 0.121 13.328-12.711 26.652-12.711" fill="#005d28"/>
   <path d="m309.26 190.93c19.496 33.078-60.34 118.6-120.92 167.23 45.406-51.465 102.29-94.289 84.273-161.92 18.387 0 18.262-5.308 36.649-5.308" fill="#005d28"/>
   <path d="m245.59 166.99c-22.707 49.367 13.695 183.76 45.531 261.14-19.992-80.836-50.594-149.45-20.113-250.9-13.449-0.984-11.969-9.253-25.418-10.242" fill="#005d28"/>
   <path d="m356.02 180.32c26.774 75.778-16.043 282.25-53.429 400.85 23.445-124.03 59.472-229.3 23.691-385.17 15.672-1.48 14.067-14.195 29.738-15.676" fill="#005d28"/>
   <path d="m92.215 192.78c26.773 75.778-16.043 282.12-53.43 400.85 23.445-124.03 59.476-229.3 23.57-385.3 15.793-1.48 14.066-14.191 29.859-15.551" fill="#005d28"/>
   <path d="m185.12 186.36c36.773 32.336-21.961 120.08-73.293 170.68 32.207-52.824 81.563-97.5 32.453-163.9 21.715-0.617 19.25-6.047 40.84-6.789" fill="#005d28"/>
   <path d="m431.29 70.602c-23.812 76.269 14.191 283.36 47.258 402.45-20.973-124.4-52.688-230.17-20.973-386.53-13.945-1.6054-12.465-14.438-26.285-15.922" fill="#005d28"/>
   <path d="m464.48 91.09c-11.718 28.633 36.524 101.94 73.047 143.65-27.39-43.933-61.816-80.836-50.957-138.96-11.105 0-10.859-4.6915-22.09-4.6915" fill="#005d28"/>
   <path d="m412.91 78.133c10.364 67.137-31.343 239.42-63.176 337.54 23.813-103.79 53.922-190.55 44.418-326.55 9.625 0 9.504-10.984 18.758-10.984" fill="#005d28"/>
   <path d="m526.92 101.46c14.066 28.508-43.68 101.82-87.113 143.53 32.574-44.179 73.539-80.832 60.586-138.96 13.324 0.122 13.324-4.691 26.527-4.566" fill="#005d28"/>
   <path d="m481.02 80.848c-16.411 42.453 9.871 157.84 32.699 224.24-14.438-69.36-36.399-127.98-14.438-215.36-9.746-0.8672-8.636-8.0235-18.261-8.8867" fill="#005d28"/>
   <path d="m560.6 92.324c19.25 65.16-11.598 242.38-38.622 344.32 17.032-106.51 42.942-196.97 17.032-330.75 11.472-1.355 10.363-12.339 21.59-13.574" fill="#005d28"/>
   <path d="m370.95 102.94c19.371 65.285-11.723 242.38-38.5 344.32 16.906-106.51 42.817-196.97 16.906-330.75 11.477-1.235 10.243-12.215 21.594-13.574" fill="#005d28"/>
   <path d="m437.46 97.508c26.406 27.89-15.797 103.05-52.441 146.49 22.828-45.293 58.363-83.551 22.949-140.69 15.672-0.496 13.945-5.184 29.492-5.8012" fill="#005d28"/>
   <path d="m321.1 103.68c-32.329 69.355 19.375 258.05 64.535 366.66-28.379-113.42-71.692-209.68-28.629-352.34-19-1.359-16.903-12.961-35.906-14.316" fill="#007a38"/>
   <path d="m304.57 97.629c-44.293 29.621 26.532 109.84 88.473 156.12-38.867-48.379-98.34-89.105-39.113-149.95-26.035-0.617-23.199-5.551-49.36-6.1721" fill="#007a38"/>
   <path d="m133.43 51.598c-32.328 69.48 19.371 258.18 64.41 366.66-28.133-113.42-71.691-209.68-28.504-352.22-19-1.3555-16.902-13.078-35.906-14.438" fill="#007a38"/>
   <path d="m43.723 90.473c-30.109 29.621 26.406 109.84 88.222 156.12-38.867-48.379-98.218-89.106-39.113-149.95-26.035-0.6172-23.199-5.5547-49.109-6.1718" fill="#007a38"/>
   <path d="m814.66 85.66c-44.297 29.496 26.527 109.84 88.348 155.99-38.746-48.129-98.344-89.101-39.117-149.94-25.911-0.4922-23.196-5.5547-49.231-6.0468" fill="#007a38"/>
   <path d="m738.53 111.45c-32.328 69.481 19.371 258.18 64.41 366.66-28.257-113.29-71.691-209.55-28.503-352.22-19-1.356-16.903-12.957-35.907-14.438" fill="#007a38"/>
   <path d="m218.57 92.199c-11.597 61.09 35.907 218.2 72.059 307.55-27.023-94.656-60.953-173.64-50.219-297.67-10.984 0.121-10.984-9.9959-21.84-9.8748" fill="#007a38"/>
   <path d="m163.9 87.633c-16.039 26.043 49.36 93.055 98.836 130.82-37.14-39.988-83.656-73.68-68.972-126.62-14.934 0-14.934-4.3203-29.864-4.1992" fill="#007a38"/>
   <path d="m328.51 49.129c-11.602 61.215 35.906 218.32 72.058 307.67-27.023-94.656-60.957-173.4-50.218-297.67-10.985 0.125-10.985-9.9961-21.84-9.9961" fill="#007a38"/>
   <path d="m323.7 104.54c-15.918 26.039 49.356 92.93 98.957 130.94-37.015-40.234-83.656-73.679-68.972-126.62-15.055 0-14.934-4.316-29.985-4.316" fill="#007a38"/>
   <path d="m40.512 90.719c-11.719 61.215 35.91 218.2 72.062 307.67-27.148-94.657-61.078-173.64-50.344-297.67-10.859 0-10.859-9.9962-21.719-9.9962" fill="#007a38"/>
   <path d="m554.56 70.234c-15.918 26.039 49.355 93.176 98.832 130.94-37.137-39.988-83.657-73.68-68.852-126.63-15.051 0-15.051-4.3164-29.98-4.3164" fill="#007a38"/>
   <path d="m636 88.004c-11.723 61.09 35.906 218.2 72.059 307.55-27.024-94.535-60.957-173.64-50.219-297.67-10.984 0.1211-10.984-9.9961-21.84-9.875" fill="#007a38"/>
   <path d="m280.14 105.16c13.82 61.09-42.938 218.19-86.004 307.54 32.207-94.531 72.68-173.64 59.847-297.67 13.079 0.125 13.079-9.996 26.157-9.871" fill="#007a38"/>
   <path d="m248.3 97.016c19.129 26.039-58.856 93.05-118.08 130.82 44.297-39.984 99.945-73.68 82.301-126.62 18.015 0 17.89-4.3204 35.781-4.1954" fill="#007a38"/>
   <path d="m390.08 71.219c13.82 61.09-43.062 218.2-86.125 307.55 32.328-94.536 72.797-173.64 59.965-297.55 13.082 0 13.082-10.117 26.16-9.996" fill="#007a38"/>
   <path d="m402.17 108c19.125 26.043-58.981 92.809-118.09 130.82 44.297-40.234 99.945-73.679 82.301-126.62 18.015 0 17.89-4.32 35.785-4.199" fill="#007a38"/>
   <path d="m778.88 87.141c19.004 26.039-58.981 93.175-118.21 130.94 44.422-39.984 99.945-73.676 82.426-126.62 17.89 0 17.89-4.3203 35.781-4.3203" fill="#007a38"/>
   <path d="m697.57 109.97c13.821 61.09-43.062 218.2-86.125 307.55 32.329-94.536 72.797-173.64 59.965-297.55 13.082 0 13.082-9.996 26.16-9.996" fill="#007a38"/>
   <path d="m126.76 89.484c-22.207 38.754 13.328 143.9 44.422 204.37-19.618-63.187-49.481-116.63-19.743-196.35-13.078-0.7422-11.597-7.2812-24.679-8.0234" fill="#007a38"/>
   <path d="m37.922 91.582c-24.309 16.539 18.262 61.461 60.957 87.254-26.777-27.027-67.742-49.859-27.023-83.797-17.891-0.3711-16.043-3.086-33.934-3.4571" fill="#007a38"/>
   <path d="m236.7 58.633c-22.332 38.629 13.328 143.78 44.422 204.37-19.621-63.188-49.48-116.75-19.742-196.35-13.082-0.7382-11.598-7.2812-24.68-8.0195" fill="#007a38"/>
   <path d="m89.5 102.57c-30.477 16.539 18.383 61.461 60.953 87.254-26.773-27.027-67.738-49.859-26.898-83.797-18.016-0.371-16.039-3.085-34.055-3.457" fill="#007a38"/>
   <path d="m546.66 81.832c-30.476 16.418 18.387 61.34 60.953 87.133-26.773-26.906-67.738-49.738-26.898-83.676-18.016-0.3711-16.039-3.2071-34.055-3.4571" fill="#007a38"/>
   <path d="m107.02 98.125c-22.211 38.75 13.328 143.9 44.421 204.37-19.496-63.187-49.355-116.62-19.621-196.35-13.078-0.739-11.718-7.2817-24.8-8.02" fill="#007a38"/>
   <path d="m191.79 93.93c26.16 59.359-15.668 220.79-52.316 313.72 23.074-97.004 58.117-179.44 23.199-301.38 15.422-1.235 13.695-11.231 29.117-12.34" fill="#007a38"/>
   <path d="m94.066 93.434c35.907 25.3-21.473 94.289-71.691 133.54 31.59-41.098 79.711-76.149 31.711-128.23 21.102-0.4922 18.879-4.8125 39.98-5.3086" fill="#007a38"/>
   <path d="m301.73 62.953c26.161 59.485-15.671 220.91-52.316 313.71 22.949-97.004 58.117-179.32 23.195-301.38 15.301-1.1094 13.7-11.106 29.121-12.34" fill="#007a38"/>
   <path d="m278.04 80.352c35.906 25.3-21.594 94.164-71.812 133.54 31.589-41.098 79.832-76.27 31.711-128.35 21.222-0.4922 18.878-4.6875 40.101-5.1836" fill="#007a38"/>
   <path d="m657.71 83.684c35.906 25.3-21.594 94.164-71.813 133.54 31.586-41.098 79.832-76.149 31.836-128.23 21.098-0.4922 18.754-4.8125 39.977-5.3086" fill="#007a38"/>
   <path d="m701.52 62.211c-32.328 69.359 19.25 257.93 64.41 366.54-28.383-113.41-71.692-209.68-28.504-352.09-19.004-1.3593-16.906-13.082-35.906-14.441" fill="#007a38"/>
   <path d="m746.8 80.848c-15.918 26.039 49.355 93.05 98.957 130.7-37.141-39.863-83.66-73.555-68.977-126.5-15.051 0-14.929-4.1953-29.98-4.1953" fill="#007a38"/>
   <path d="m676.84 69c13.82 61.09-43.063 218.07-86.125 307.42 32.328-94.535 72.801-173.64 59.969-297.43 13.078 0 13.078-9.9961 26.156-9.9961" fill="#007a38"/>
   <path d="m831.32 90.227c19.004 26.039-58.98 93.054-118.21 130.82 44.422-39.984 100.07-73.676 82.426-126.62 17.891 0 17.891-4.1953 35.781-4.1953" fill="#007a38"/>
   <path d="m769.13 71.469c-22.211 38.75 13.324 143.77 44.422 204.25-19.496-63.188-49.36-116.5-19.621-196.23-13.079-0.7383-11.723-7.2813-24.801-8.0195" fill="#007a38"/>
   <path d="m877.1 81.957c26.16 59.363-15.668 220.66-52.317 313.59 22.949-97.004 58.117-179.44 23.321-301.25 15.3-1.2344 13.574-11.234 28.996-12.344" fill="#007a38"/>
   <path d="m619.34 91.582c26.16 59.488-15.668 220.79-52.316 313.72 22.949-97.129 58.117-179.45 23.195-301.38 15.301-1.113 13.699-11.11 29.121-12.344" fill="#007a38"/>
   <path d="m710.15 86.648c35.907 25.422-21.593 94.286-71.812 133.41 31.586-40.977 79.832-76.024 31.832-128.11 21.101-0.4922 18.758-4.6875 39.98-5.3047" fill="#007a38"/>
   <path d="m137.99 1c-31.957 69.48 19.371 258.06 64.531 366.54-28.378-113.29-71.441-209.43-28.5-352.1-19.003-1.3555-17.031-13.082-36.031-14.438" fill="#007a38"/>
   <path d="m183.4 19.633c-15.918 26.039 49.356 93.18 98.961 130.94-37.14-39.984-83.66-73.676-68.976-126.62-15.055 0-14.93-4.3203-29.985-4.3203" fill="#007a38"/>
   <path d="m113.56 7.9102c13.945 61.09-42.938 218.07-86 307.42 32.203-94.535 72.8-173.52 59.969-297.55 13.078 0.125 13.078-9.9961 26.032-9.8711" fill="#007a38"/>
   <path d="m267.92 29.012c19 26.043-58.981 93.179-118.21 130.94 44.418-39.984 99.945-73.676 82.422-126.62 17.894 0 17.769-4.3203 35.785-4.3203" fill="#007a38"/>
   <path d="m205.73 10.379c-22.211 38.629 13.325 143.9 44.418 204.25-19.496-63.062-49.355-116.62-19.617-196.23-13.082-0.7382-11.722-7.2812-24.801-8.0195" fill="#007a38"/>
   <path d="m313.7 20.746c26.16 59.484-15.793 220.78-52.316 313.59 22.949-97 58.117-179.2 23.074-301.25 15.422-1.1093 13.82-11.105 29.242-12.34" fill="#007a38"/>
   <path d="m56.184 30.496c26.16 59.359-15.793 220.78-52.316 313.59 22.949-97 58.117-179.32 23.074-301.25 15.422-1.1093 13.82-11.109 29.242-12.34" fill="#007a38"/>
   <path d="m146.63 25.559c35.906 25.297-21.223 94.164-71.442 133.53 31.586-41.094 79.46-76.145 31.71-128.23 21.223-0.4922 18.879-4.8125 39.731-5.3047" fill="#007a38"/>
   <path d="m252.5 235.85c-23.566 15.55-24.058 35.296-25.418 57.636-13.695 58.621 39.117 84.043 35.293 23.078-1.851-32.089 1.848-57.511 8.512-93.425l-18.387 12.711" fill="#efebf7"/>
   <path d="m240.41 144.77c-11.597-12.093-20.113-28.261-23.937-44.179-1.481-14.071 4.812-22.215 18.879-24.684 15.422-6.293 30.847-5.8008 46.394-4.3204-16.535 18.883-23.199 39.617-20.359 62.324 0 0-20.977 9.504-20.977 10.859" fill="#efebf7"/>
   <path d="m238.18 222.28c-8.391 24.067-28.996 26.907-46.395 33.321-31.219 29.004-49.848 0.496-11.598-33.321 12.094-14.562 26.407-25.175 49.973-20.363 0 0 8.02 17.402 8.02 20.363" fill="#efebf7"/>
   <path d="m236.7 200.56c-18.754 0.863-35.289 3.824-46.394 8.636-66.262 45.664-32.329-79.722 46.394-28.879v20.243" fill="#efebf7"/>
   <path d="m236.58 191.55c-11.969-14.684-33.316-23.695-43.805-29.742-83.781-15.055 25.543-74.172 51.453-11.231l-7.648 40.973" fill="#efebf7"/>
   <path d="m240.16,225.117c-33.07,3.086-37.387,23.817-47.258,43.813-37.636,46.894 2.711,94.039 21.961,36.035 10.735-32.086 22.828-58.129 48.121-80.59l-22.824.742" fill="#efebf7"/>
   <path d="m194.13 314.47c7.406-42.578 1.48-49.86 63.176-89.723-43.434 29.988-54.536 53.438-63.176 89.723" fill="#fff"/>
   <path d="m270.02,228.078c-17.524,41.469-56.637-.863-55.032-34.062 .739-15.18 3.825-30.36 12.34-45.539 6.043-7.774 15.422-13.821 25.293-19.622 2.223,35.047 15.301,64.297 17.399,99.223" fill="#ddd5ee"/>
   <path d="m247.81 334.09c-11.723-41.59-25.293-34.063 13.078-96.633-26.157 45.664-20.977 60.102-13.078 96.633" fill="#fff"/>
   <path d="m184.51 283.86c15.793-23.941 33.929-47.636 53.672-63.8l-0.739-7.899c-27.761 16.164-42.816 45.66-52.933 71.699" fill="#ddd5ee"/>
   <path d="m163.54 241.78c11.106-17.894 40.965-44.922 69.59-54.918v8.516c-23.937 4.566-53.426 30.359-69.59 46.402" fill="#ddd5ee"/>
   <path d="m235.96 173.04c-25.051-3.453-52.567 0.863-71.692 10.863 15.672-13.332 42.446-23.328 71.692-17.402v6.539" fill="#ddd5ee"/>
   <path d="m272.12 233.26c-51.824 13.574-45.406-67.262-30.109-89.969 49.113-73.059 63.793 47.02 30.109 89.969" fill="#f8a10e"/>
   <path d="m261.75 220.67c-34.426 31.844-43.188-104.78 4.195-64.418 22.207 19.004 4.317 56.398-4.195 64.418" fill="#fdd605"/>
   <path d="m269.9 234.37c20.484-20.113 22.582-73.555-14.559-105.02 24.062-46.649 73.418 72.074 14.559 105.02" fill="#f46b17"/>
   <path d="m248.55 212.53c2.344 0 4.316-5.675 4.316-12.711 0-6.785-1.972-12.464-4.316-12.464-2.469 0-4.442 5.679-4.442 12.464 0 7.036 1.973 12.711 4.442 12.711" fill="#fff"/>
   <path d="m265.45 236.72c0.371 28.136 4.938 48.129 15.547 66.765 23.32 55.411 78.477 46.774 42.078-2.222-18.015-24.313-33.07-46.895-45.16-81.328l-12.465 16.785" fill="#efebf7"/>
   <path d="m321.47 324.09c-33.809-26.781-43.063-25.055-48.864-98.36 5.801 52.45 21.102 73.43 48.864 98.36" fill="#fff"/>
   <path d="m283.1 233.02c13.203 24.804 22.211 36.777 40.101 48.5 46.274 38.504 94.641-2.961 36.403-21.352-32.825-10.242-61.325-20.113-79.711-49.363l3.207 22.215" fill="#efebf7"/>
   <path d="m368.73 281.14c-42.32-8.145-49.726-2.344-88.593-64.668 29.242 43.812 52.441 55.414 88.593 64.668" fill="#fff"/>
   <path d="m287.17 211.91c27.019 8.149 50.59 14.563 71.566 10.246 59.844-5.679 65.274-67.879 10.489-40.726-30.11 14.929-45.903 15.179-84.032 20.609l1.977 9.871" fill="#efebf7"/>
   <path d="m390.57 189.7c-35.781 24.192-36.89 33.446-108.46 16.91 51.7 10.368 76.375 2.098 108.46-16.91" fill="#fff"/>
   <path d="m279.27 223.39c23.446 15.672 44.915 25.793 66.262 27.765 58.856 12.34 82.547-45.047 22.207-35.789-30.722 4.567 25.172 23.203-88.594-4.32l0.125 12.344" fill="#efebf7"/>
   <path d="m385.51 229.56c-41.211 12.589-45.035 21.226-108.58-15.797 46.394 25.176 72.429 24.558 108.58 15.797" fill="#fff"/>
   <path d="m293.22 199.08c19.496 9.625 40.969-1.976 79.836-23.078 13.449-12.59 3.824-25.18-2.961-33.324-38.129 8.64-61.82 27.027-76.875 43.441-6.293 4.692-5.426 10.492 0 12.961" fill="#efebf7"/>
   <path d="m294.7 178.84c-6.172-4.441-11.722-12.957-10.121-23.199 9.625-21.723 11.106-26.535 36.277-40.606 43.434-3.824 39.118 15.551 33.317 23.203-26.531 12.586-44.422 28.137-59.473 40.602" fill="#efebf7"/>
   <path d="m284.58 140.46c-6.293-0.496-10.609-5.062-13.078-15.18-1.48-23.695 4.813-40.109 30.477-52.207 29.492 4.8125 22.703 21.723 28.996 34.805-20.114 9.133-30.231 15.672-46.395 32.582" fill="#efebf7"/>
   <path d="m294.7 194.76c26.403-1.852 44.297-12.219 60.953-23.82-18.261 7.035-42.941 19.625-63.054 18.757 0 0 0.617 6.418 2.101 5.063" fill="#fff"/>
   <path d="m280.26 128.11c13.203-13.203 18.383-26.531 26.035-39.121-17.027 12.465-35.539 32.703-25.297 47.145-6.539 2.097-2.465 0.984-0.738-8.024" fill="#fff"/>
   <path d="m248.3 134.66c-23.442-28.758-21.223-39.492 6.543-54.426-29.864 23.2-12.586 26.164-6.543 54.426" fill="#fff"/>
   <path d="m288.9 164.4c18.879-29.003 14.067-32.457 47.875-36.285-26.035 10.739-28.75 15.797-47.875 36.285" fill="#fff"/>
   <path d="m361.45 264.36c-40.351-9.133-55.652-23.203-81.191-53.687 24.183 23.945 51.082 41.222 81.191 53.687" fill="#ddd5ee"/>
   <path d="m280.26 222.28c7.648 38.754 15.918 54.672 45.652 87.008-19.863-26.164-37.508-55.168-45.652-87.008" fill="#ddd5ee"/>
   <path d="m264.96 232.4c-4.32 16.168-12.215 40.356-12.215 58.743 0.863 13.332 4.563 23.203 9.375 32.582-2.219-28.633 3.332-64.668 2.84-91.325" fill="#ddd5ee"/>
   <path d="m286.8 211.42c42.074 15.18 61.078 20.238 99.945 5.801-34.301 7.035-67.492 2.469-99.945-5.801" fill="#ddd5ee"/>
   <path d="m291.12 188.34c21.098-18.391 46.762-32.211 71.688-42.824-15.918 4.32-32.946 7.035-44.914 17.402-6.786-1.359-27.024 27.645-26.774 25.422" fill="#ddd5ee"/>
   <path d="m259.16 123.06c-4.316-31.594-2.097-28.879 23.199-51.465-14.683 17.156-21.964 34.308-23.199 51.465" fill="#ddd5ee"/>
   <path d="m232.39 139.72c-1.481-5.309-8.27-10.613-17.399-15.922-17.277-3.207-31.961-1.109-43.433 7.281 16.902-4.812 36.152-4.07 60.832 8.641" fill="#ddd5ee"/>
   <path d="m285.94 201.18c18.878 1.355 37.757 5.551 56.636 0 15.176-10.985 32.078-18.637 49.231-25.918-18.508 4.441-37.387 8.515-49.973 18.758 0 4.445-56.512 10.984-55.894 7.16" fill="#ddd5ee"/>
   <path d="m724.59 320.27c5.18 14.437 15.547 17.152 27.144 20.609 28.996 14.562 48.985-9.996 16.411-15.676-17.028-2.961-29.86-8.144-47.997-16.164l4.442 11.231" fill="#efebf7"/>
   <path d="m675.234,315.332c-7.773,4.566-17.398,6.91-26.285,6.91-7.527-.988-10.98-5.304-10.609-12.957-1.36-8.887.863-16.91 3.578-24.93 7.895,10.985 17.891,17.153 30.23,18.512 0,0 2.344,12.219 3.086,12.465" fill="#efebf7"/>
   <path d="m715.7 326.19c11.602 7.407 10.488 18.512 11.602 28.508 11.351 20.117-5.926 26.289-18.879 1.852-6.172-8.145-9.871-16.906-4.442-28.754 0 0 10.118-1.977 11.719-1.606" fill="#efebf7"/>
   <path d="m704.1 324.22c-1.851 9.996-2.468 19.004-1.234 25.422 15.547 40.601-46.023 7.035-9.5-28.016l10.734 2.594" fill="#efebf7"/>
   <path d="m699.29 323.1c-9.254 4.446-16.656 14.563-21.098 19.254-18.386 42.207-35.785-22.586 0.493-28.386l20.605 9.132" fill="#efebf7"/>
   <path d="m717.43 325.45c-2.469 17.77 7.773 22.582 17.148 30.36 19.867 25.546 49.606 10.363 21.594-7.036-15.547-9.625-27.641-19.254-36.278-35.422l-2.464 12.098" fill="#efebf7"/>
   <path d="m758.52 360.87c-21.344-9.258-25.911-7.035-39.114-44.43 10.242 26.536 21.223 35.297 39.114 44.43" fill="#fff"/>
   <path d="m722.74 310.15c19.496 14.438-7.527 29.618-24.8 24.684-7.899-2.348-15.547-5.926-22.458-12.219-3.332-4.195-5.308-9.875-7.156-15.797 18.754 3.207 35.66 0.125 54.414 3.332" fill="#ddd5ee"/>
   <path d="m775.55 335.08c-23.32 0.988-20.973 9.008-49.106-19.008 20.727 19.5 28.997 18.637 49.106 19.008" fill="#fff"/>
   <path d="m741.25 362.1c-10.488-11.355-20.73-23.82-26.773-36.16l-4.2-0.617c4.938 16.539 18.633 28.137 30.973 36.777" fill="#ddd5ee"/>
   <path d="m716.57 367.78c-8.019-8.019-18.507-27.148-20.234-43.441l4.566 1.113c-0.617 13.082 9.254 31.84 15.668 42.328" fill="#ddd5ee"/>
   <path d="m689.547,321.133c-5.059,12.711-6.172,27.644-3.332,38.996-5.059-9.871-6.91-25.176-.125-39.859l3.457.863" fill="#ddd5ee"/>
   <path d="m725.7 309.66c0.617 29-41.09 15.426-51.082 4.567-32.207-34.926 32.696-27.645 51.082-4.567" fill="#f8a10e"/>
   <path d="m717.8 313.6c12.465 22.09-60.461 9.5-33.438-10.246 12.832-9.379 30.231 4.692 33.438 10.246" fill="#fdd605"/>
   <path d="m725.94 311.01c-7.894-13.328-35.781-21.102-57.004-5.555-21.472-18.512 47.133-29.496 57.004 5.555" fill="#f46b17"/>
   <path d="m711.879,319.527c.246-1.355-2.469-3.086-6.168-3.949-3.578-.863-6.789-.492-7.156.742-.25,1.235 2.465,3.082 6.043,3.95 3.703.863 6.91.492 7.281-.743" fill="#fff"/>
   <path d="m726.69 313.6c14.804 3.333 25.91 3.454 37.015 0.247 31.957-5.309 34.426-35.422 4.07-22.34-15.05 6.418-28.75 11.476-48.367 13.453l7.282 8.64" fill="#efebf7"/>
   <path d="m779.62 295.09c-18.387 14.441-18.633 19.5-57.746 13.453 28.254 3.457 41.211-1.973 57.746-13.453" fill="#fff"/>
   <path d="m726.93 303.98c14.683-3.95 22.086-7.157 30.476-15.055 26.035-19.5 10.363-50.106-6.664-21.844-9.5 15.918-18.262 29.742-35.906 35.789l12.094 1.11" fill="#efebf7"/>
   <path d="m762.96 264.98c-9.625 21.227-7.527 25.793-45.164 38.379 26.777-9.871 35.785-20.609 45.164-38.379" fill="#fff"/>
   <path d="m716.32,299.039c7.653-13.078 14.067-24.68 14.317-36.281 4.562-32.086-27.52-42.699-20.114-10.613 4.196,17.769 2.344,26.039.493,46.773l5.304.121" fill="#efebf7"/>
   <path d="m717.68 242.02c8.144 21.844 12.957 23.575-4.692 59.118 11.848-25.918 10.614-39.864 4.692-59.118" fill="#fff"/>
   <path d="m721.38 304.72c11.23-10.367 19.25-20.364 22.953-31.348 13.82-29.371-13.328-48.996-16.043-16.168-1.48 16.66 15.301-10.242-13.324 46.035l6.414 1.481" fill="#efebf7"/>
   <path d="m737.91 249.68c1.481 23.203 5.555 26.285-21.84 55.043 19.004-21.227 21.965-34.926 21.84-55.043" fill="#fff"/>
   <path d="m710.4 294.35c7.528-9.008 4.075-21.844-2.218-44.801-4.938-8.762-12.711-5.18-17.895-2.715-0.246 21.105 6.539 35.914 13.203 45.789 1.727 3.949 4.938 4.316 6.91 1.727" fill="#efebf7"/>
   <path d="m699.91 291.02c-3.086 2.589-8.265 4.441-13.449 2.343-10.242-7.773-12.586-9.133-16.781-24.066 3.457-23.324 12.957-18.633 16.41-14.563 3.211 15.43 9.133 26.782 13.82 36.286" fill="#efebf7"/>
   <path d="m678.44 291.51c-0.988 3.211-3.949 4.937-9.625 4.937-12.586-2.222-20.484-7.527-23.566-22.586 6.168-14.808 14.188-9.133 21.84-10.859 2.344 11.726 4.562 17.894 11.351 28.508" fill="#efebf7"/>
   <path d="m708.301,292.992c2.222-14.066-.988-24.804-4.934-34.926 1.356,10.368 4.934,24.93 1.973,35.422 0,0 3.578.492 2.961-.496" fill="#fff"/>
   <path d="m671.406,292.254c-5.304-8.641-11.597-12.957-17.273-18.637 4.441,10.492 12.711,22.832 21.594,19.254 .371,3.703.246,1.356-4.321-.617" fill="#fff"/>
   <path d="m670.91 309.78c-18.016 8.762-23.445 6.293-27.762-10.242 8.391 18.637 12.09 9.871 27.762 10.242" fill="#fff"/>
   <path d="m691.52 292.25c-12.832-13.574-15.301-11.477-12.957-29.742 2.347 15.054 4.566 17.031 12.957 29.742" fill="#fff"/>
   <path d="m753.22 266.71c-9.871 19.992-19.125 26.285-38.375 35.914 15.672-9.75 28.012-21.723 38.375-35.914" fill="#ddd5ee"/>
   <path d="m720.89 304.1c21.347 0.863 30.722-1.606 51.453-13.082-16.164 7.035-33.684 12.71-51.453 13.082" fill="#ddd5ee"/>
   <path d="m724.344,313.355c8.019,4.321 19.617,11.481 29.242,13.825 7.156,1.109 12.832.492 18.383-.864-15.297-2.468-33.559-9.875-47.625-12.961" fill="#ddd5ee"/>
   <path d="m716.07 299.29c13.203-20.242 18.262-29.621 15.547-51.836-0.617 18.883-7.156 35.789-15.547 51.836" fill="#ddd5ee"/>
   <path d="m704.35 294.1c-6.911-13.453-10.981-28.632-13.45-43.07 0.246 8.883-0.492 18.262 3.578 25.793-1.601 3.332 11.106 17.645 9.872 17.277" fill="#ddd5ee"/>
   <path d="m666.1 302.62c-17.153-1.605-15.422-2.469-24.063-18.637 7.16 9.875 15.301 15.922 24.063 18.637" fill="#ddd5ee"/>
   <path d="m671.531,318.789c-2.961.121-6.664,3.082-10.613,7.156-3.824,8.762-4.563,16.66-1.602,23.821-.371-9.504 2.469-19.625 12.215-30.977" fill="#ddd5ee"/>
   <path d="m710.645,298.422c2.96-9.746 7.652-19.125 7.035-29.742-3.95-9.379-5.922-19.25-7.528-29.125 0,10.246-.246,20.734 3.703,28.633 2.344.492-1.359,31.101-3.21,30.234" fill="#ddd5ee"/>
   <path d="m436.84 327.43c2.836 7.652 8.265 9.008 14.437 10.984 15.176 7.653 25.785-5.308 8.637-8.39-9.008-1.606-15.797-4.321-25.297-8.516l2.223 5.922" fill="#efebf7"/>
   <path d="m410.684,324.836c-4.071,2.344-9.129,3.699-13.821,3.699-4.07-.617-5.922-2.836-5.675-6.91-.739-4.687.496-9.008 1.851-13.203 4.195,5.801 9.5,9.133 16.039,9.75 0,0 1.235,6.539 1.606,6.664" fill="#efebf7"/>
   <path d="m432.152,330.512c6.172,3.949 5.555,9.871 6.172,15.179 6.047,10.614-3.207,13.821-9.996.989-3.207-4.321-5.305-9.012-2.344-15.305 0,0 5.305-.988 6.168-.863" fill="#efebf7"/>
   <path d="m425.98 329.52c-0.988 5.309-1.234 9.997-0.617 13.454 8.266 21.472-24.429 3.703-5.058-14.809l5.675 1.355" fill="#efebf7"/>
   <path d="m423.52 328.91c-4.934 2.344-8.883 7.778-11.227 10.246-9.75 22.336-19.004-11.972 0.246-15.058l10.981 4.812" fill="#efebf7"/>
   <path d="m433.02 330.14c-1.235 9.379 4.195 11.972 9.128 16.043 10.364 13.578 26.161 5.554 11.352-3.7-8.145-5.062-14.559-10.121-19.125-18.636l-1.355 6.293" fill="#efebf7"/>
   <path d="m454.73 348.9c-11.23-4.812-13.574-3.699-20.605-23.57 5.43 14.07 11.226 18.758 20.605 23.57" fill="#fff"/>
   <path d="m435.86 322c10.364 7.652-3.949 15.797-13.078 13.082-4.195-1.113-8.269-3.086-11.968-6.418-1.731-2.222-2.715-5.183-3.704-8.39 9.872 1.726 18.879 0.121 28.75 1.726" fill="#ddd5ee"/>
   <path d="m463.74 335.32c-12.215 0.492-11.105 4.692-25.914-10.121 11.106 10.367 15.301 9.875 25.914 10.121" fill="#fff"/>
   <path d="m445.73 349.52c-5.551-5.922-10.981-12.586-14.192-19.129l-2.219-0.367c2.59 8.882 9.872 14.929 16.411 19.496" fill="#ddd5ee"/>
   <path d="m432.65 352.6c-4.195-4.321-9.75-14.438-10.734-22.954l2.465 0.493c-0.367 7.035 4.812 16.906 8.269 22.461" fill="#ddd5ee"/>
   <path d="m418.336,327.918c-2.715,6.664-3.332,14.687-1.731,20.613-2.714-5.183-3.699-13.332-.121-21.105l1.852.492" fill="#ddd5ee"/>
   <path d="m437.46 321.75c0.367 15.426-21.719 8.27-27.023 2.469-17.153-18.512 17.273-14.688 27.023-2.469" fill="#f8a10e"/>
   <path d="m433.27 323.85c6.539 11.722-32.082 5.058-17.645-5.43 6.785-4.938 15.914 2.59 17.645 5.43" fill="#fdd605"/>
   <path d="m437.58 322.49c-4.195-7.031-19-11.105-30.105-2.961-11.477-9.75 24.925-15.55 30.105 2.961" fill="#f46b17"/>
   <path d="m430.18,327.055c.125-.739-1.356-1.602-3.332-2.098-1.852-.492-3.578-.246-3.7.371-.25.742 1.231,1.606 3.207,2.098 1.852.492 3.579.246 3.825-.371" fill="#fff"/>
   <path d="m437.95 323.85c7.899 1.851 13.695 1.851 19.496 0.121 17.028-2.715 18.262-18.633 2.223-11.848-7.899 3.457-15.18 6.172-25.543 7.16l3.824 4.567" fill="#efebf7"/>
   <path d="m465.84 314.1c-9.625 7.652-9.75 10.367-30.477 7.035 15.051 1.972 21.715-0.988 30.477-7.035" fill="#fff"/>
   <path d="m438.08 318.79c7.774-2.101 11.719-3.828 16.039-8.023 13.821-10.243 5.555-26.536-3.332-11.477-5.058 8.391-9.746 15.672-19 18.883l6.293 0.617" fill="#efebf7"/>
   <path d="m457.08 298.06c-4.933 11.351-3.949 13.699-23.812 20.484 14.187-5.305 19-10.984 23.812-20.484" fill="#fff"/>
   <path d="m432.523,316.195c4.075-6.91 7.403-13.082 7.528-19.254 2.469-17.031-14.559-22.582-10.61-5.55 2.219,9.379 1.231,13.82.247,24.679l2.835.125" fill="#efebf7"/>
   <path d="m433.14 285.96c4.441 11.598 6.91 12.461-2.469 31.344 6.418-13.7 5.676-21.102 2.469-31.344" fill="#fff"/>
   <path d="m435.238,319.156c5.922-5.429 10.117-10.734 12.094-16.535 7.156-15.551-7.035-26.043-8.516-8.641-.738,8.887 8.145-5.429-7.031,24.438l3.453.738" fill="#efebf7"/>
   <path d="m444 290.03c0.738 12.34 2.836 13.946-11.598 29.125 9.993-11.23 11.598-18.511 11.598-29.125" fill="#fff"/>
   <path d="m429.316,313.605c4.071-4.691 2.219-11.48-1.109-23.695-2.594-4.566-6.789-2.719-9.504-1.359-.121,11.23 3.457,19.004 7.035,24.187 .864,2.102 2.59,2.348 3.578.867" fill="#efebf7"/>
   <path d="m423.76 311.88c-1.602 1.48-4.317 2.469-7.032 1.359-5.429-4.195-6.664-4.937-8.882-12.836 1.726-12.339 6.785-9.875 8.636-7.773 1.727 8.266 4.813 14.316 7.278 19.25" fill="#efebf7"/>
   <path d="m412.41 312.12c-0.492 1.731-2.097 2.719-5.058 2.719-6.661-1.235-10.86-4.074-12.461-11.973 3.207-7.898 7.527-4.937 11.597-5.801 1.235 6.172 2.344 9.504 5.922 15.055" fill="#efebf7"/>
   <path d="m428.207,312.988c1.234-7.531-.496-13.207-2.594-18.515 .742,5.433 2.594,13.207 1.114,18.761 0,0 1.847.246 1.48-.246" fill="#fff"/>
   <path d="m408.711,312.617c-2.84-4.566-6.172-6.91-9.133-9.875 2.344,5.555 6.664,12.098 11.352,10.121 .246,1.977.125.742-2.219-.246" fill="#fff"/>
   <path d="m408.46 321.87c-9.621 4.692-12.461 3.332-14.68-5.43 4.442 9.875 6.414 5.184 14.68 5.43" fill="#fff"/>
   <path d="m419.44 312.62c-6.91-7.16-8.144-6.172-6.91-15.797 1.235 8.02 2.469 9.008 6.91 15.797" fill="#fff"/>
   <path d="m452.02 299.04c-5.184 10.617-10.118 13.949-20.36 19.008 8.391-5.184 14.93-11.477 20.36-19.008" fill="#ddd5ee"/>
   <path d="m434.992,318.789c11.227.492 16.164-.742 27.024-6.914-8.516,3.828-17.645,6.789-27.024,6.914" fill="#ddd5ee"/>
   <path d="m436.719,323.723c4.32,2.347 10.488,6.172 15.547,7.406 3.703.617 6.664.246 9.625-.496-8.145-1.231-17.645-5.18-25.172-6.91" fill="#ddd5ee"/>
   <path d="m432.4 316.32c7.032-10.738 9.625-15.675 8.266-27.523-0.371 10.121-3.824 19.008-8.266 27.523" fill="#ddd5ee"/>
   <path d="m426.23,313.605c-3.699-7.16-5.921-15.183-7.156-22.832 .125,4.688-.246,9.625 1.852,13.575-.863,1.851 5.922,9.379 5.304,9.257" fill="#ddd5ee"/>
   <path d="m405.87 318.05c-9.008-0.863-8.144-1.234-12.707-9.875 3.824 5.308 8.02 8.394 12.707 9.875" fill="#ddd5ee"/>
   <path d="m408.83 326.68c-1.602 0-3.578 1.605-5.676 3.703-1.972 4.691-2.465 8.886-0.863 12.59-0.121-4.938 1.359-10.243 6.539-16.293" fill="#ddd5ee"/>
   <path d="m429.441,315.824c1.602-5.183 4.071-10.117 3.825-15.672-2.098-5.062-3.211-10.242-4.075-15.55 0,5.554-.121,10.984 1.977,15.179 1.234.371-.742,16.539-1.727,16.043" fill="#ddd5ee"/>
   <path d="m102.33 284.11c4.195 11.477 12.586 13.696 21.84 16.536 23.32 11.601 39.363-8.02 13.203-12.586-13.695-2.469-24.062-6.664-38.496-13.082l3.4531 9.132" fill="#efebf7"/>
   <path d="m62.723 280.04c-6.293 3.703-13.941 5.676-21.098 5.676-6.0469-0.863-8.8867-4.316-8.5156-10.488-1.1094-7.16 0.7422-13.575 2.8398-19.993 6.293 8.883 14.434 13.821 24.305 14.809 0 0 1.8516 9.871 2.4688 9.996" fill="#efebf7"/>
   <path d="m95.176 288.8c9.3792 5.926 8.5122 14.933 9.3792 22.957 9.129 16.043-4.8128 20.98-15.18 1.48-4.9336-6.543-8.0195-13.699-3.5781-23.203 0 0 8.1445-1.605 9.3789-1.234" fill="#efebf7"/>
   <path d="m85.922 287.19c-1.4805 8.024-1.9766 15.305-0.9883 20.489 12.586 32.582-37.016 5.554-7.6484-22.586l8.6367 2.097" fill="#efebf7"/>
   <path d="m82.098 286.33c-7.4063 3.582-13.328 11.727-17.031 15.43-14.805 33.937-28.75-18.145 0.4961-22.832l16.535 7.402" fill="#efebf7"/>
   <path d="m96.531 288.18c-1.9727 14.316 6.2927 18.144 13.821 24.437 16.043 20.485 39.855 8.27 17.398-5.676-12.461-7.777-22.211-15.429-29.121-28.386l-2.0976 9.625" fill="#efebf7"/>
   <path d="m129.6 316.69c-17.153-7.528-20.852-5.676-31.465-35.79 8.2653 21.352 17.027 28.508 31.465 35.79" fill="#fff"/>
   <path d="m100.85 275.96c15.671 11.48-6.0473 23.695-19.868 19.746-6.4141-1.848-12.461-4.687-18.016-9.746-2.7149-3.332-4.3165-7.898-5.7969-12.715 15.051 2.594 28.625 0 43.68 2.715" fill="#ddd5ee"/>
   <path d="m143.3 295.96c-18.633 0.738-16.902 7.281-39.359-15.305 16.656 15.672 23.195 14.934 39.359 15.305" fill="#fff"/>
   <path d="m115.78 317.56c-8.515-9.012-16.656-19.008-21.468-29.004l-3.457-0.492c4.0742 13.328 14.93 22.582 24.926 29.496" fill="#ddd5ee"/>
   <path d="m95.914 322.24c-6.4141-6.539-14.805-21.844-16.164-34.926l3.5781 0.864c-0.4922 10.613 7.4063 25.672 12.586 34.062" fill="#ddd5ee"/>
   <path d="m74.1992,284.727c-4.0703,10.242-4.9375,22.214-2.5898,31.343-4.0742-8.019-5.6758-20.238-.125-31.961l2.7148.618" fill="#ddd5ee"/>
   <path d="m103.2 275.59c0.493 23.199-32.945 12.34-40.964 3.578-25.914-28.137 26.281-22.215 40.964-3.578" fill="#f8a10e"/>
   <path d="m96.902 278.68c9.9957 17.769-48.617 7.648-26.773-8.27 10.238-7.531 24.184 3.824 26.773 8.27" fill="#fdd605"/>
   <path d="m103.57 276.58c-6.4176-10.613-28.875-16.906-45.902-4.441-17.274-14.809 37.883-23.696 45.902 4.441" fill="#f46b17"/>
   <path d="m92.0898,283.367c.2461-.988-1.9726-2.344-4.8125-3.086-2.9609-.738-5.5507-.371-5.7968.617s1.9726,2.469 4.8125,3.086c2.9609.743 5.5508.493 5.7968-.617" fill="#fff"/>
   <path d="m104.06 278.68c11.968 2.715 20.73 2.715 29.738 0.246 25.664-4.321 27.641-28.508 3.332-18.02-12.094 5.184-23.199 9.258-38.867 10.86l5.7973 6.914" fill="#efebf7"/>
   <path d="m146.5 263.87c-14.684 11.602-14.93 15.676-46.395 10.738 22.707 2.84 33.196-1.48 46.395-10.738" fill="#fff"/>
   <path d="m104.18 270.9c11.843-3.086 17.89-5.675 24.554-12.093 20.852-15.672 8.266-40.235-5.304-17.403-7.653 12.711-14.684 23.821-28.875 28.633l9.6254 0.863" fill="#efebf7"/>
   <path d="m133.18 239.56c-7.649 17.156-6.047 20.859-36.278 30.976 21.469-7.898 28.75-16.66 36.278-30.976" fill="#fff"/>
   <path d="m95.793,267.078c6.047-10.613 11.227-19.871 11.473-29.125 3.703-25.918-22.0863-34.433-16.1644-8.64 3.332,14.316 1.8515,20.98.3711,37.515l4.3203.25" fill="#efebf7"/>
   <path d="m96.781 221.17c6.6597 17.523 10.485 19.004-3.7032 47.512 9.4999-20.856 8.5119-32.086 3.7032-47.512" fill="#fff"/>
   <path d="m99.863 271.52c8.8867-8.27 15.301-16.29 18.387-25.176 11.105-23.571-10.734-39.371-12.957-12.957-1.109 13.449 12.34-8.27-10.609 36.898l5.1797 1.235" fill="#efebf7"/>
   <path d="m113.07 227.34c1.235 18.633 4.442 21.101-17.519 44.18 15.301-17.032 17.644-28.016 17.519-44.18" fill="#fff"/>
   <path d="m90.98 263.13c6.0468-7.16 3.332-17.402-1.7266-35.914-3.9492-7.035-10.242-4.195-14.438-2.098-0.125 16.906 5.1836 28.754 10.609 36.778 1.3594 3.085 3.9492 3.332 5.5547 1.234" fill="#efebf7"/>
   <path d="m82.59 260.54c-2.5898 2.098-6.664 3.578-10.859 1.977-8.1446-6.297-10.117-7.407-13.449-19.375 2.7148-18.762 10.488-15.059 13.078-11.727 2.7148 12.465 7.4062 21.473 11.23 29.125" fill="#efebf7"/>
   <path d="m65.316 260.91c-0.8633 2.59-3.2109 3.949-7.7734 3.949-10.121-1.726-16.414-6.046-18.879-18.019 4.9336-11.969 11.473-7.402 17.52-8.762 1.8516 9.379 3.5781 14.317 9.1328 22.832" fill="#efebf7"/>
   <path d="m89.2539,262.141c1.8477-11.356-.7422-19.871-3.9492-28.137 1.1094,8.391 3.9492,20.113 1.6055,28.508 0,0 2.8359.367 2.3437-.371" fill="#fff"/>
   <path d="m59.641 261.52c-4.1953-6.91-9.3789-10.488-13.82-14.933 3.5781 8.394 10.242 18.265 17.274 15.426 0.246 2.964 0.246 1.113-3.4532-0.493" fill="#fff"/>
   <path d="m59.27 275.59c-14.562 7.035-18.879 5.058-22.336-8.149 6.7891 14.934 9.75 7.903 22.336 8.149" fill="#fff"/>
   <path d="m75.805 261.52c-10.242-10.859-12.219-9.257-10.488-23.82 1.9727 12.098 3.8242 13.699 10.488 23.82" fill="#fff"/>
   <path d="m125.28 241.04c-7.773 16.047-15.301 21.106-30.722 28.758 12.586-7.777 22.582-17.402 30.722-28.758" fill="#ddd5ee"/>
   <path d="m99.371 271.03c17.152 0.739 24.676-1.234 41.336-10.492-12.957 5.68-27.023 10.242-41.336 10.492" fill="#ddd5ee"/>
   <path d="m102.207,278.43c6.418,3.457 15.797,9.258 23.445,11.109 5.801.984 10.364.492 14.809-.617-12.34-1.977-27.023-7.899-38.254-10.492" fill="#ddd5ee"/>
   <path d="m95.547 267.2c10.609-16.289 14.683-23.695 12.461-41.59-0.492 15.18-5.676 28.758-12.461 41.59" fill="#ddd5ee"/>
   <path d="m86.168 263c-5.6758-10.738-8.8828-22.953-10.859-34.555 0.2461 7.156-0.3672 14.563 2.8398 20.735-1.2343 2.714 9.0079 14.066 8.0196 13.82" fill="#ddd5ee"/>
   <path d="m55.445 269.91c-13.82-1.355-12.465-1.973-19.375-14.93 5.6758 7.895 12.215 12.711 19.375 14.93" fill="#ddd5ee"/>
   <path d="m59.7617,282.875c-2.3437.121-5.3047,2.469-8.5117,5.801-3.0859,6.91-3.7031,13.328-1.2344,19.004-.3711-7.528 1.8516-15.672 9.7461-24.805" fill="#ddd5ee"/>
   <path d="m91.1016,266.461c2.4687-7.777 6.1718-15.305 5.6797-23.82-3.086-7.528-4.6915-15.426-6.0469-23.45 0,8.27-.125,16.661 2.9609,22.957 1.8516.493-.9883,25.051-2.5937,24.313" fill="#ddd5ee"/>
   <path d="m547.9 389.75c-4.196 12.34-12.465 14.563-21.719 17.648-23.321 12.34-39.36-8.64-13.324-13.453 13.695-2.59 24.062-7.035 38.621-13.82l-3.578 9.625" fill="#efebf7"/>
   <path d="m587.625,385.43c6.172,3.949 13.82,6.047 20.977,6.047 6.046-.864 8.882-4.567 8.515-11.106 1.11-7.652-.617-14.562-2.84-21.351-6.293,9.378-14.312,14.687-24.183,15.796 0,0-1.973,10.489-2.469,10.614" fill="#efebf7"/>
   <path d="m555.05 394.69c-9.254 6.417-8.391 15.917-9.379 24.433-9.129 17.156 4.812 22.461 15.18 1.731 4.933-7.036 8.019-14.563 3.578-24.684 0 0-8.145-1.73-9.379-1.48" fill="#efebf7"/>
   <path d="m564.43,393.082c1.48,8.516 1.847,16.289.984,21.719-12.586,34.804 36.895,6.051 7.527-23.942l-8.511,2.223" fill="#efebf7"/>
   <path d="m568.25 392.22c7.402 3.703 13.324 12.34 16.902 16.414 14.809 36.035 28.75-19.379-0.367-24.313l-16.535 7.899" fill="#efebf7"/>
   <path d="m553.69 394.19c1.977 15.18-6.293 19.254-13.816 25.918-15.918 21.969-39.855 8.887-17.277-6.046 12.34-8.27 22.211-16.415 29.121-30.239l1.972 10.367" fill="#efebf7"/>
   <path d="m520.62 424.43c17.152-7.899 20.852-6.047 31.465-38.012-8.27 22.707-17.027 30.234-31.465 38.012" fill="#fff"/>
   <path d="m549.38 380.99c-15.672 12.34 6.047 25.422 19.988 21.102 6.293-1.852 12.465-4.934 18.016-10.367 2.59-3.578 4.195-8.391 5.676-13.45-15.055 2.715-28.625 0-43.68 2.715" fill="#ddd5ee"/>
   <path d="m506.93,402.461c18.754.742 16.902,7.652 39.484-16.289-16.66,16.66-23.32,15.918-39.484,16.289" fill="#fff"/>
   <path d="m534.44 425.41c8.512-9.625 16.657-20.359 21.594-30.851l3.453-0.618c-4.07 14.317-15.054 24.188-25.047 31.469" fill="#ddd5ee"/>
   <path d="m554.309,430.352c6.418-6.911 14.808-23.2 16.289-37.149l-3.703.988c.496,11.231-7.403,27.274-12.586,36.161" fill="#ddd5ee"/>
   <path d="m576.027,390.488c4.071,10.864 4.934,23.696 2.715,33.325 4.071-8.516 5.551-21.598.121-34.063l-2.836.738" fill="#ddd5ee"/>
   <path d="m547.03 380.62c-0.496 24.805 32.946 13.203 40.965 3.949 25.91-29.988-26.16-23.695-40.965-3.949" fill="#f8a10e"/>
   <path d="m553.32 383.95c-9.996 18.883 48.614 8.145 26.899-8.761-10.243-8.024-24.309 4.07-26.899 8.761" fill="#fdd605"/>
   <path d="m546.78 381.85c6.414-11.477 28.75-18.141 45.778-4.813 17.273-15.797-37.758-25.176-45.778 4.813" fill="#f46b17"/>
   <path d="m558.137,389.008c-.246-.985 1.972-2.59 4.933-3.332 2.84-.738 5.43-.371 5.676.617 .246,1.113-1.851,2.594-4.812,3.332-2.961.863-5.551.496-5.797-.617" fill="#fff"/>
   <path d="m546.17 384.07c-11.848 2.836-20.73 2.836-29.613 0.121-25.668-4.566-27.641-30.234-3.332-19.129 12.09 5.555 23.074 9.875 38.867 11.602l-5.922 7.406" fill="#efebf7"/>
   <path d="m503.72 368.15c14.683 12.34 14.933 16.786 46.394 11.477-22.703 3.086-33.066-1.606-46.394-11.477" fill="#fff"/>
   <path d="m546.043,375.68c-11.844-3.207-17.77-6.047-24.555-12.836-20.851-16.66-8.265-42.824 5.43-18.633 7.648,13.699 14.684,25.422 28.75,30.605l-9.625.864" fill="#efebf7"/>
   <path d="m517.17 342.36c7.648 18.141 5.922 22.09 36.152 32.95-21.472-8.516-28.629-17.645-36.152-32.95" fill="#fff"/>
   <path d="m554.559,371.609c-6.172-11.23-11.231-21.105-11.602-31.101-3.578-27.399 22.211-36.531 16.164-9.008-3.207,15.055-1.726,22.215-.246,39.984l-4.316.125" fill="#efebf7"/>
   <path d="m553.44 322.74c-6.539 18.633-10.363 20.239 3.828 50.598-9.625-22.09-8.515-34.063-3.828-50.598" fill="#fff"/>
   <path d="m550.48 376.42c-9.007-8.887-15.421-17.402-18.382-26.781-11.106-25.176 10.609-41.961 12.832-13.825 1.109 14.196-12.34-8.882 10.734 39.247l-5.184 1.359" fill="#efebf7"/>
   <path d="m537.16 329.28c-1.113 19.871-4.32 22.586 17.645 47.145-15.301-18.145-17.645-29.867-17.645-47.145" fill="#fff"/>
   <path d="m559.37 367.54c-6.043-7.773-3.328-18.637 1.731-38.383 3.949-7.402 10.242-4.441 14.312-2.218 0.246 18.015-5.183 30.73-10.613 39.121-1.356 3.457-3.945 3.703-5.43 1.48" fill="#efebf7"/>
   <path d="m567.76 364.7c2.465 2.223 6.66 3.828 10.734 2.098 8.266-6.785 10.117-7.898 13.449-20.73-2.715-19.872-10.367-15.922-13.082-12.465-2.59 13.328-7.402 22.953-11.101 31.097" fill="#efebf7"/>
   <path d="m584.91 365.07c0.863 2.84 3.211 4.321 7.774 4.321 10.117-1.977 16.41-6.543 19.004-19.375-5.059-12.711-11.477-7.778-17.645-9.258-1.852 9.996-3.578 15.305-9.133 24.312" fill="#efebf7"/>
   <path d="m560.973,366.426c-1.852-12.098.742-21.227 3.949-29.992-1.109,8.886-3.949,21.476-1.606,30.359 0,0-2.836.371-2.343-.367" fill="#fff"/>
   <path d="m590.586,365.684c4.195-7.282 9.379-11.106 13.82-15.918-3.453,9.007-10.117,19.496-17.273,16.535-.246,3.086-.125,1.234 3.453-.617" fill="#fff"/>
   <path d="m591.08 380.74c14.434 7.528 18.754 5.43 22.207-8.765-6.785 15.921-9.746 8.515-22.207 8.765" fill="#fff"/>
   <path d="m574.42 365.68c10.367-11.477 12.34-9.75 10.488-25.301-1.972 12.836-3.699 14.562-10.488 25.301" fill="#fff"/>
   <path d="m524.94 343.84c7.899 17.156 15.426 22.586 30.848 30.73-12.586-8.269-22.578-18.511-30.848-30.73" fill="#ddd5ee"/>
   <path d="m550.86 375.8c-17.152 0.738-24.679-1.235-41.335-11.11 13.078 6.047 27.023 10.864 41.335 11.11" fill="#ddd5ee"/>
   <path d="m548.141,383.824c-6.418,3.582-15.793,9.75-23.567,11.727-5.676,1.109-10.242.492-14.683-.742 12.339-1.973 26.898-8.391 38.25-10.985" fill="#ddd5ee"/>
   <path d="m554.8 371.73c-10.614-17.277-14.684-25.296-12.586-44.304 0.492 16.168 5.797 30.605 12.586 44.304" fill="#ddd5ee"/>
   <path d="m564.059,367.289c5.675-11.476 8.882-24.437 10.859-36.777-.125,7.652.367,15.551-2.84,21.968 1.235,2.961-8.883,15.18-8.019,14.809" fill="#ddd5ee"/>
   <path d="m594.78 374.69c13.821-1.48 12.465-2.218 19.375-16.043-5.676 8.516-12.218 13.579-19.375 16.043" fill="#ddd5ee"/>
   <path d="m590.46 388.52c2.469 0 5.305 2.468 8.512 6.047 3.086 7.406 3.703 14.316 1.359 20.363 0.246-8.145-1.977-16.785-9.871-26.41" fill="#ddd5ee"/>
   <path d="m559.121,370.992c-2.465-8.269-6.168-16.293-5.676-25.426 3.211-8.019 4.692-16.414 6.047-24.929 0,8.765.125,17.773-2.961,24.562-1.851.367 1.11,26.531 2.59,25.793" fill="#ddd5ee"/>
   <path d="m608.85 447.51c-10.981 16.906-34.301 19.004-48.864 25.176 21.965 13.699 51.579 15.054 61.45-5.926-12.09 20.117-5.922 28.512 6.046 39 14.559-7.406 13.204-19.746 19.868-30.36 13.203 15.426 31.711 18.512 55.523 9.254-18.754-3.949-34.18-15.918-52.933-41.093-13.696 1.355-27.391 2.714-41.09 3.949" fill="#8fdbf8"/>
   <path d="m559.984,447.508c15.426,6.293 30.848,17.769 46.274,18.633 10.609-4.442 21.222-8.883 31.711-13.328-2.715,11.48 8.761,13.453 17.273,17.277 19.375.617 33.934-5.922 46.274-15.918-12.711,3.578-25.172,5.305-34.426-5.309 5.305-20.73.988-41.465-7.899-62.199-7.894-6.172-15.918-7.035-23.812-2.59-18.512,11.477-28.258,29.989-29.121,55.535-10.981,9.254-28.258,9.254-46.274,7.899" fill="#0fb2f0"/>
   <path d="m559.98 446.89c10.739 15.55 54.418 29 68.731 7.281 12.09-39.492 42.445-45.91 40.473-32.457 3.207-6.789-15.547-41.223-29.86-40.973-9.504 7.899-19.004 15.918-28.383 23.817-4.195 8.515-6.293 17.523-3.332 27.769-2.715 17.277-47.629 15.18-47.629 14.563" fill="#0085bc"/>
   <path d="m604.9 419.12c3.582-20.855 2.223-31.84 25.172-41.711-8.39-6.172-5.304-16.293 3.95-22.465 8.886-7.527 15.671-5.429 24.554-2.343 8.637 2.468 4.567 23.324 2.594 27.398 15.297 9.75 21.098 25.301 19.246 43.07-17.891-5.675-19-12.957-25.172-29.742 0.742 17.524-1.109 17.774-13.203 27.77-6.293-10.985-14.066-13.207-5.305-28.508-5.921 7.402-32.082 25.297-31.836 26.531" fill="#008a5b"/>
   <path d="m679.06 421.72c-7.899-5.309-15.918-15.797-23.817-31.719 2.84 7.652 5.676 15.426 8.637 23.203 3.703 6.785 10.121 5.676 15.18 8.516" fill="#005d28"/>
   <path d="m644.02 420.48c-3.825-1.359-11.477-5.308-13.328-13.945 1.605-6.172 3.828-10.984 7.281-15.922-1.852 9.875-0.989 21.723 6.047 29.867" fill="#005d28"/>
   <path d="m636 381.36c-32.207-13.453 3.332-42.332 21.84-27.769-15.055 3.207-24.434 8.762-21.84 27.769" fill="#005d28"/>
   <path d="m628.72 376.05c-4.813 3.824-9.625 7.527-14.559 11.23-4.32 6.172-6.293 14.563-7.281 22.586 8.145-11.601 16.781-22.832 28.504-29.125l-6.664-4.691" fill="#005d28"/>
   <path d="m650.56 376.79c3.703 0 6.664-4.074 6.664-9.012s-2.961-8.886-6.664-8.886c-3.578 0-6.539 3.949-6.539 8.886s2.961 9.012 6.539 9.012" fill="#80d190"/>
   <path d="m630.07 463.43c-2.961 0-5.304-1.11-5.304-2.59s2.343-2.715 5.304-2.715 5.309 1.234 5.309 2.715-2.344 2.59-5.309 2.59" fill="#fff870"/>
   <path d="m625.508,468.734c-3.332,0-6.047-.863-6.047-1.976s2.715-1.973 6.047-1.973c3.207,0 5.922.863 5.922,1.973s-2.715,1.976-5.922,1.976" fill="#c6bc00"/>
   <path d="m638.96 472.07c-3.457 0-6.172-0.988-6.172-2.343 0-1.235 2.715-2.348 6.172-2.348 3.578 0 6.293 1.113 6.293 2.348 0 1.355-2.715 2.343-6.293 2.343" fill="#c6bc00"/>
   <path d="m642.04 452.2c2.348 5.063-3.082 6.789 4.566 10.614 9.872 4.566 28.133 0.496 50.344-7.282-21.84 3.332-35.043 9.258-54.91-3.332" fill="#0085bc"/>
   <path d="m636.36 355.56c28.258-44.426 40.352-113.54 16.164-181.91 4.446-1.726 8.887-3.578 13.328-5.304 10.118 61.211 15.422 122.55-13.328 183.88 0 0-16.164 1.977-16.164 3.333" fill="#005d28"/>
   <path d="m797.14 310.27c-1.848 12.094-14.313 19.25-20.852 26.286 15.672 1.976 32.453-4.692 32.574-18.883-1.601 14.191 3.95 17.277 13.203 20.242 6.172-7.898 2.344-14.441 3.332-21.969 11.231 5.184 22.211 2.223 33.071-8.886-11.352 2.593-22.828-0.122-39.61-9.379-7.281 4.195-14.562 8.39-21.718 12.589" fill="#8fdbf8"/>
   <path d="m770 322.61c10.117-0.492 21.594 1.973 30.356-1.359 4.687-5.184 9.5-10.242 14.187-15.426 1.359 7.035 8.145 5.184 13.945 5.184 10.856-4.567 17.274-11.848 21.594-20.489-6.172 5.184-12.586 9.258-20.359 5.801-2.348-12.832-9.996-23.199-20.114-32.457-5.921-1.48-10.613 0-13.82 4.446-7.402 11.105-8.144 23.816-2.097 38.257-3.825 7.899-13.329 12.219-23.692 16.043" fill="#0fb2f0"/>
   <path d="m769.75,322.242c9.992,5.801 37.512,2.344 39.977-13.328-3.329-24.93 11.968-36.16 14.191-28.137 .125-4.691-18.879-19.007-26.777-15.304-3.328,6.91-6.539,13.699-9.746,20.488-.247,5.676.988,11.23 5.183,16.164 2.836,10.246-22.582,20.488-22.828,20.117" fill="#0085bc"/>
   <path d="m787.77 295.46c-3.332-12.465-6.911-18.141 3.332-29.371-6.172-1.36-7.035-7.774-3.457-13.574 2.961-6.297 7.281-6.914 12.957-7.407 5.429-0.863 8.511 11.723 8.39 14.563 10.981 1.48 18.137 8.641 21.594 19.008-11.352 1.355-13.82-2.469-21.473-10.246 4.813 9.629 3.829 10.121-0.367 18.757-6.172-4.441-11.105-3.699-10.121-14.437-1.355 5.676-11.351 22.215-10.855 22.707" fill="#008a5b"/>
   <path d="m829.469,278.184c-5.797-.864-12.832-4.688-21.223-11.477 3.578,3.457 7.035,7.035 10.613,10.613 3.825,2.84 7.032.618 10.61.864" fill="#005d28"/>
   <path d="m809.727,286.328c-2.465.25-7.774,0-10.856-4.316-.742-3.828-.742-7.035 0-10.617 1.481,5.925 4.934,12.218 10.856,14.933" fill="#005d28"/>
   <path d="m795.41 266.71c-21.348 0.617-8.883-24.312 5.059-20.855-7.528 5.55-11.227 10.98-5.059 20.855" fill="#005d28"/>
   <path d="m790.109,265.598c-1.851,3.332-3.578,6.664-5.304,9.996-.864,4.441.121,9.625 1.726,14.316 1.602-8.515 3.453-16.91 8.391-23.328l-4.813-.984" fill="#005d28"/>
   <path d="m802.324,260.535c1.973-.988 2.715-3.949 1.36-6.664-1.235-2.715-3.829-4.195-5.926-3.332-1.973.988-2.59,3.949-1.356,6.664 1.235,2.715 3.95,4.195 5.922,3.332" fill="#80d190"/>
   <path d="m812.813,313.727c-1.606.742-3.208.617-3.579-.122-.371-.867.618-2.097 2.223-2.839 1.727-.743 3.328-.618 3.699.125 .371.863-.738,2.097-2.343,2.836" fill="#fff870"/>
   <path d="m811.578,317.801c-1.726.863-3.453.988-3.824.371-.246-.617.988-1.731 2.836-2.594 1.851-.738 3.582-.988 3.828-.371s-.988,1.731-2.84,2.594" fill="#c6bc00"/>
   <path d="m819.969,316.195c-1.973.864-3.703.989-4.071.371-.371-.742.985-1.976 2.836-2.961 1.977-.867 3.825-.988 4.075-.25 .367.743-.864,1.977-2.84,2.84" fill="#c6bc00"/>
   <path d="m816.64 304.47c2.593 2.218 0 4.566 5.183 4.687 6.664 0 15.793-6.789 26.035-16.66-11.226 7.281-17.027 13.945-31.218 11.973" fill="#0085bc"/>
   <path d="m789.12 252.27c4.442-31.715-6.293-72.934-37.016-104.78 2.098-2.097 4.071-4.195 6.047-6.293 21.098 31.469 39.485 63.93 39.114 105.27 0 0-8.516 5.183-8.145 5.797" fill="#005d28"/>
   <path d="m851.68 246.47c4.074 11.597-3.578 23.695-5.922 33.074 14.683-5.68 26.281-19.5 19.867-31.965 5.18 13.328 11.598 13.453 21.098 11.602 1.726-9.875-4.688-13.825-7.403-20.981 12.34-0.617 20.731-8.394 25.047-23.324-8.758 7.527-20.234 10.613-39.359 10.363-4.442 7.035-8.887 14.196-13.328 21.231" fill="#8fdbf8"/>
   <path d="m833.543,270.164c8.762-5.184 19.988-8.394 26.156-15.551 1.731-6.664 3.582-13.453 5.309-20.242 4.562,5.555 9.746.742 14.683-1.973 7.528-9.132 9.747-18.636 9.5-28.261-2.961,7.527-6.664,14.191-15.3,14.687-8.02-10.246-19.743-15.801-32.946-19.254-5.922,1.606-9.379,5.059-10.117,10.614-1.359,13.207 4.07,24.683 16.039,34.679 .371,8.762-5.922,17.032-13.324,25.301" fill="#0fb2f0"/>
   <path d="m833.172,269.914c11.598.496 34.18-15.547 29.121-30.605-14.684-20.364-6.539-37.516-.742-31.469-2.098-4.199-25.664-7.899-30.848-.867 .25,7.531.617,15.058.988,22.586 2.469,5.183 6.168,9.504 12.215,11.972 7.282,7.653-10.363,28.633-10.734,28.383" fill="#0085bc"/>
   <path d="m836.504,237.828c-8.762-9.379-14.559-12.836-10.859-27.519-6.047,1.726-9.872-3.582-9.379-10.246-.368-7.032 3.211-9.5 7.898-12.586 4.441-3.332 13.078,6.293 14.313,8.761 10.367-3.703 19.992-.863 27.886,6.664-9.375,6.539-13.324,4.321-23.691,1.11 8.762,6.172 8.144,7.035 8.516,16.66-7.653-.984-11.598,1.851-15.672-8.02 1.359,5.676.246,24.93.988,25.176" fill="#008a5b"/>
   <path d="m865.254,203.023c-5.555,1.852-13.574,1.852-24.184-.246 4.813,1.481 9.5,2.965 14.313,4.446 4.687.738 6.539-2.84 9.871-4.2" fill="#005d28"/>
   <path d="m851.56 219.44c-1.977 1.356-6.789 3.579-11.602 1.356-2.465-3.086-3.945-5.922-4.934-9.504 4.071 4.566 10.118 8.516 16.536 8.148" fill="#005d28"/>
   <path d="m829.72 208.82c-18.387 10.617-19.129-17.152-5.309-20.73-4.07 8.39-4.812 14.929 5.309 20.73" fill="#005d28"/>
   <path d="m824.54 210.43v11.23c1.356 4.32 4.688 8.395 8.145 11.848-2.469-8.27-4.813-16.535-3.457-24.559l-4.688 1.481" fill="#005d28"/>
   <path d="m832.926,200.063c1.355-1.727.492-4.688-1.852-6.418s-5.429-1.848-6.785-.122-.496,4.688 1.852,6.418c2.343,1.852 5.425,1.973 6.785.122" fill="#80d190"/>
   <path d="m867.227,242.148c-1.11,1.356-2.59,2.098-3.207,1.606-.739-.617-.493-2.102.617-3.582 1.109-1.356 2.59-2.098 3.207-1.602 .742.618.496,2.219-.617,3.578" fill="#fff870"/>
   <path d="m868.09,246.344c-1.231,1.605-2.711,2.59-3.207,2.097-.492-.371 0-1.972 1.234-3.578 1.235-1.605 2.715-2.593 3.207-2.097 .496.371 0,1.972-1.234,3.578" fill="#c6bc00"/>
   <path d="m874.633,241.035c-1.235,1.606-2.84,2.594-3.457,2.223-.617-.492 0-2.344 1.234-3.949 1.356-1.727 2.84-2.715 3.453-2.223 .617.496.125,2.223-1.23,3.949" fill="#c6bc00"/>
   <path d="m866.24 232.27c3.328 0.618 2.098 3.95 6.785 1.606 5.801-3.086 10.735-13.328 15.176-27.027-6.539 11.847-8.637 20.488-21.961 25.421" fill="#0085bc"/>
   <path d="m817.38 199.08c-10.859-29.992-39.856-61.34-81.934-75.16 0.868-2.715 1.606-5.555 2.348-8.27 33.437 17.774 65.023 37.887 84.027 74.543 0 0-5.058 8.391-4.441 8.887" fill="#005d28"/>
   <path d="m613.539,471.078c1.109-2.219 3.082-4.566 5.426-5.305 .617,1.852.371,2.469.496,4.071-1.977-.617-3.703,1.48-5.676,2.715 0,0-.125-1.356-.246-1.481" fill="#231f20"/>
   <path d="m613.414,485.766c-1.355-3.457-1.234-8.516-.617-14.317 .371-.988.863-1.48 1.851-1.109-1.109,4.812 1.852,5.43 1.727,9.75-1.234,3.332-2.219,4.933-2.961,5.676" fill="#231f20"/>
   <path d="m613.289,484.777-1.23-1.48 .863-.492-1.113-1.235 1.359.121-1.234-1.851 .988-.121-1.113-1.977 .988.371-.988-2.097 1.234,1.109-1.109-3.086 .863,1.484-.738-3.332 1.726,4.317-.496,8.269" fill="#231f20"/>
   <path d="m613.414,483.789-.617-8.637c.617,2.715.371,7.403 1.726,7.403-.246.988-.738,1.48-1.109,1.234" fill="#fff"/>
   <path d="m620.941,466.758c1.973-.985 3.207-6.293 4.071-10.735 .246,1.11-.121,2.098-.246,3.207 0,2.344-.121,4.692-.739,6.543-.371.122-2.593,1.11-3.086.985" fill="#231f20"/>
   <path d="m619.71 467.25 1.973-3.086-0.614 2.098 1.481-3.578-0.496 3.332s-2.469 1.48-2.344 1.234" fill="#231f20"/>
   <path d="m617.609,469.969c0-.742.125-1.481.125-2.223 1.848-.617 3.454-1.605 5.059-4.687v3.578c-1.48,1.851-3.457,2.222-5.184,3.332" fill="#231f20"/>
   <path d="m614.156,470.34 1.231-3.211-.246,2.098 1.605-2.715v1.48l1.234-2.715-.125,1.852 1.235-2.469-.125,2.348-4.809,3.332" fill="#231f20"/>
   <path d="m614.523,472.066 1.114-.617-.25-.492 .988.246-.371-.988 1.605,1.109-.492-1.726 1.235.742-.618-1.606 1.848,1.973-.738-1.973-4.321,3.332" fill="#231f20"/>
   <path d="m614.03 471.32 4.813-4.195c-0.864 1.851-3.578 3.332-4.813 4.195" fill="#fff"/>
   <path d="m624.148,461.699c.247-1.726.989-2.84 1.727-4.074-.984,2.594-1.602,4.566-1.48,5.68 0,0-.122-1.481-.247-1.606" fill="#231f20"/>
   <path d="m574.793,491.441c-2.961-.863-6.539-2.589-9.5-5.554 1.234-1.356 1.852-1.356 3.207-1.852 1.234,2.719 4.566,4.32 7.281,6.543 0,0-.988.617-.988.863" fill="#231f20"/>
   <path d="m587.379,487c-1.727,2.715-6.047,4.32-11.598,5.305-1.113-.246-2.097-.739-2.593-2.098 5.183-.121 2.96-4.195 6.789-5.43 3.824.618 6.046,1.36 7.402,2.223" fill="#231f20"/>
   <path d="m586.641,487.371-.125,2.219-1.11-1.11-.25,1.852-.984-1.852-.496,2.344-1.11-1.355-.617,2.097-.492-1.48-.988,1.973-.121-1.852-1.485,2.469 .371-1.727-2.218,1.973 2.218-3.578 7.407-1.973" fill="#231f20"/>
   <path d="m585.773,487.617-6.91,3.453c1.852-1.601 6.047-2.836 4.692-4.687 1.109.121 1.972.617 2.218,1.234" fill="#fff"/>
   <path d="m564.551,483.051c-2.59-2.348-8.266-2.469-12.707-2.098 .617-.617 1.847-.371 2.836-.742 1.976-.617 4.074-1.234 6.293-.988 .371.371 3.207,2.965 3.578,3.828" fill="#231f20"/>
   <path d="m566.03 484.53-4.316-1.605h2.219l-4.317-0.863 3.332-0.247s3.328 2.59 3.082 2.715" fill="#231f20"/>
   <path d="m570.227,486.383c-.739.121-1.356.371-1.973.492-2.223-2.223-4.441-3.949-8.516-5.184l2.961-1.109c2.961,1.481 5.063,3.824 7.528,5.801" fill="#231f20"/>
   <path d="m573.559,490.824-3.825-.738 1.973-.25-3.699-1.234 1.355-.368-3.453-.863 1.602-.496-3.082-.738 1.972-.617 7.157,5.304" fill="#231f20"/>
   <path d="m574.793,489.836-1.605-1.356-.122.493-.742-1.356-.492.738-.492-2.343-.988,1.109-.493-1.851-.867,1.234 .125-2.961-1.109,1.605 6.785,4.688" fill="#231f20"/>
   <path d="m574.55 490.7-7.774-5.062c2.219 0.496 5.922 3.703 7.774 5.062" fill="#fff"/>
   <path d="m557.273,480.211c-1.605.371-3.332-.246-5.062-.988 3.211.617 5.43.742 6.293.25l-1.231.738" fill="#231f20"/>
   <path d="m642.289,511.188c1.727.617.121.617 1.848,1.359 1.605.738 6.664,2.219 8.39,2.961 6.172-5.184 11.969-9.258 17.399-12.59-1.727.25-4.563,1.605-6.047,2.102-4.688,2.835-7.524,5.55-11.102,9.253 0,0-10.859-2.96-10.488-3.085" fill="#231f20"/>
   <path d="m611.19 519.95c-27.269-7.527-42.566 3.949-63.914-9.008 7.528-0.246 10.364-8.515 15.422-6.539 3.578-5.925 8.641-4.445 13.082-5.8 12.09 7.402 44.418 6.664 35.41 21.347" fill="#efebf7"/>
   <path d="m561.59,514.148c2.961-2.343 2.098-4.566 9.625-5.183-1.481-6.785 10.117-4.563 15.055-7.031l23.441,2.836c.742,4.074 1.359,8.144 2.098,12.093-24.676-4.812-33.684.617-50.219-2.715" fill="#ddd5ee"/>
   <path d="m611.191,516.742c-8.882-6.789-35.906-3.578-54.414-4.32 16.043-.121 29.985-1.727 50.098.988 2.219,1.602 2.098,1.727 4.316,3.332" fill="#7a6bbc"/>
   <path d="m551.23 511.31c7.527 5.55 32.449 4.32 49.476 5.675-14.68-0.617-27.637 0-45.898-2.961-1.852-1.234-1.727-1.48-3.578-2.714" fill="#7a6bbc"/>
   <path d="m598.238,508.227-41.582.371 32.449-1.235 9.133.864" fill="#9384ca"/>
   <path d="m563.2 508.35 25.047-5.309-2.097-0.246s-22.579 5.43-22.95 5.555" fill="#8677c3"/>
   <path d="m572.449,505.883 6.664-7.899-.125.985-6.539,6.914" fill="#a092d0"/>
   <path d="m595.28 508.84-10.488 4.195 12.461-4.074-1.973-0.121" fill="#9384ca"/>
   <path d="m553.94 510.08 6.786 2.469 2.589-0.125-9.375-2.344" fill="#9384ca"/>
   <path d="m554.56 510.32 5.425-1.851-1.48 0.125-3.945 1.726" fill="#7a6bbc"/>
   <path d="m582.94 507.86-10.368 4.196 12.34-4.071-1.972-0.125" fill="#9384ca"/>
   <path d="m577.26 512.91-10.489 4.199 12.461-4.074-1.972-0.125" fill="#9384ca"/>
   <path d="m596.14 513.53-10.368 4.199 12.465-4.074-2.097-0.125" fill="#b0a3d8"/>
   <path d="m636.98 515.88-0.367 3.578c21.344 1.727 17.028-36.16-2.468-25.793l-2.961 4.07 5.796 18.145" fill="#231f20"/>
   <path d="m611.563,506.5c-3.95.863-7.157,6.91-14.067,5.305-14.558-1.11-27.144-21.473-22.703-35.172 24.062-5.555 46.023,5.058 46.273,18.883-1.976,4.07-5.062,7.652-9.503,10.984" fill="#231f20"/>
   <path d="m606.13 509.22c1.48 17.277 35.289 23.324 38.5-5.68 2.59-22.953-30.973-9.379-38.5 5.68" fill="#231f20"/>
   <path d="m611.934,518.715c-8.883-2.961-26.282-2.715-38.496-1.852 10.98-1.23 22.332-2.097 34.792-1.23 .497.613 3.211,2.465 3.704,3.082" fill="#fff"/>
   <path d="m607 513.53c0.496-10.613 16.414-21.965 23.074-21.472-10.363 9.257-16.164 13.824-17.644 27.89-3.578-1.726-4.813-4.566-5.43-6.418" fill="#f68712"/>
   <path d="m623.9 523.65c17.274 2.223 25.664-23.078 11.723-31.468-3.332-1.481-5.059-0.864-6.539 0.246 8.141 10.242 2.836 28.136-5.184 31.222" fill="#f68712"/>
   <path d="m577.508,496.254c-4.07-7.899.863-16.781 15.055-20.981-5.43-.367-13.7-.738-17.895.497-1.973,6.785-.613,13.945 2.84,20.484" fill="#f68712"/>
   <path d="m574.547,476.141c2.59.492 11.105-1.977 9.625,3.207 3.824-2.594 8.019-4.321 12.461-6.047-7.281-.617-14.559,0-22.086,2.84" fill="#ef3520"/>
   <path d="m595.4 511.93c-11.597-0.125 15.426-27.153 22.457-25.176 0.618 3.082 1.36 1.726 2.344 5.797-7.894 4.816-16.531 11.234-14.433 17.648-2.098 2.348-7.157 2.102-10.368 1.731" fill="#f68712"/>
   <path d="m612.92 502.8c-12.34-23.203-29.738-26.164-34.797-48.75 5.059 4.937 12.34 1.48 14.313 6.172 6.292-1.36 8.515 2.961 12.214 5.058 12.34 13.7 18.879 29.375 8.27 37.52" fill="#efebf7"/>
   <path d="m619.953,484.652c2.223-2.218 5.555-4.562 9.5-5.55 .617,1.601.25,2.218.125,3.578-2.961-.246-6.047,1.851-9.379,3.207 0,0 0-1.11-.246-1.235" fill="#231f20"/>
   <path d="m617.734,497.734c-1.48-2.836-.742-7.402.985-12.711 .742-.863 1.605-1.48 3.211-1.234-2.469,4.566 2.097,4.566 1.355,8.516-2.344,3.086-4.07,4.691-5.551,5.429" fill="#231f20"/>
   <path d="m617.734,496.871-1.851-1.109 1.48-.492-1.359-1.114h1.976l-1.726-1.48 1.726-.246-1.605-1.606 1.605.246-1.359-1.851 1.731.867-1.36-2.594 1.235,1.11-.618-2.715 2.098,3.582-1.973,7.402" fill="#231f20"/>
   <path d="m618.102,496.008 .25-7.653c.492,2.348-.497,6.665 1.726,6.297-.617.985-1.359,1.602-1.976,1.356" fill="#fff"/>
   <path d="m632.293,479.719c3.332-1.235 6.168-6.172 8.02-10.121 .246.863-.493,1.851-.739,2.84-.496,2.097-.863,4.195-2.222,5.921-.493.125-4.071,1.36-5.059,1.36" fill="#231f20"/>
   <path d="m630.32 480.21 3.453-2.961-0.988 1.973 2.715-3.332-1.355 3.086s-3.95 1.605-3.825 1.234" fill="#231f20"/>
   <path d="m626.617,483.051c.246-.617.371-1.36.617-1.977 2.961-.863 5.551-1.972 8.637-4.933-.246,1.109-.371,2.097-.492,3.207-2.715,1.851-5.801,2.468-8.762,3.703" fill="#231f20"/>
   <path d="m621.188,483.789 2.343-2.961-.617,1.852 2.84-2.59-.246,1.23 2.344-2.465-.372,1.602 2.223-2.344-.496,2.098-8.019,3.578" fill="#231f20"/>
   <path d="m621.434,485.395 1.976-.743-.496-.367h1.606l-.372-.742 2.344.617-.617-1.355 1.852.492-.618-1.359 2.594,1.484-.988-1.731-7.281,3.704" fill="#231f20"/>
   <path d="m620.7 484.78 8.266-4.441c-1.602 1.727-6.168 3.453-8.266 4.441" fill="#fff"/>
   <path d="m638.22 474.66c0.617-1.601 1.976-2.715 3.332-3.824-2.098 2.469-3.207 4.32-3.207 5.309 0 0 0-1.36-0.125-1.485" fill="#231f20"/>
   <path d="m585.156,465.648c3.457.493 4.446-1.48 9.625,3.332 3.703-5.429 9.504,3.704 14.313,5.555 6.047,6.664 7.035,13.328 8.144,19.375-2.218,3.086-.246,3.086-2.465,6.172-12.464-19.746-21.347-21.105-29.617-34.434" fill="#ddd5ee"/>
   <path d="m615.02,500.699c-1.114-10.246-20.36-26.41-31.711-39.371 10.238,10.738 20.234,19.129 31.339,34.434 .247,2.468 0,2.468.372,4.937" fill="#7a6bbc"/>
   <path d="m580.469,457.008c.988,8.515 17.89,24.562 27.761,36.777-9.007-10.242-17.644-18.633-27.39-32.703-.246-2.098 0-2.098-.371-4.074" fill="#7a6bbc"/>
   <path d="m612.55 486.5-26.778-27.766 21.473 21.102 5.305 6.664" fill="#9384ca"/>
   <path d="m590.09 463.06 19.617 13.449-1.231-1.481s-18.14-11.722-18.386-11.968" fill="#8677c3"/>
   <path d="m610.21 485.02-9.504-4.32 10.613 5.68-1.109-1.36" fill="#9384ca"/>
   <path d="m582.94 458 2.835 6.172 1.606 1.605-4.441-7.777" fill="#9384ca"/>
   <path d="m583.31 458.49 4.687 2.59-1.109-0.988-3.578-1.602" fill="#7a6bbc"/>
   <path d="m603.05 476.02-9.504-4.321 10.613 5.801-1.109-1.48" fill="#9384ca"/>
   <path d="m596.02 475.4-9.5-4.195 10.609 5.676-1.109-1.481" fill="#9384ca"/>
   <path d="m607.74 488.6-9.5-4.317 10.61 5.676-1.11-1.359" fill="#b0a3d8"/>
   <path d="m648.828,509.09c-1.73.246-3.457-1.606-3.949-4.32s.371-5.184 1.973-5.551c1.73-.25 3.457,1.726 3.949,4.316 .496,2.715-.371,5.184-1.973,5.555" fill="#f68712"/>
   <path d="m650.43,506.25c.867-.246 1.234-1.848.867-3.699-.25-1.852-1.359-3.211-2.223-2.965-.863.125-1.234,1.73-.863,3.582s1.355,3.207 2.219,3.082" fill="#231f20"/>
   <path d="m650.43,504.77c.25-.122.371-.864.25-1.727-.25-.988-.617-1.727-.867-1.605-.247,0-.368.863-.122,1.73 .122.984.493,1.602.739,1.602" fill="#efebf7"/>
   <path d="m648.7 499.22c-1.973 2.59-0.738 7.281 1.235 7.648-2.715 2.098-5.059-6.168-1.235-7.648" fill="#fff"/>
   <path d="m647.594,509.336c1.726-.371.371.496 2.219.246s6.91-1.602 8.761-1.727c2.594-7.652 5.43-14.07 8.516-19.746-1.36,1.11-3.211,3.704-4.074,4.938-2.59,4.812-3.7,8.637-4.813,13.699 0,0-10.98,2.961-10.609,2.59" fill="#231f20"/>
   <path d="m600.58 511.07c-5.184-4.074-30.109-13.824-17.027-27.894-3.086 11.973 2.343 18.883 17.027 27.894" fill="#fff"/>
   <path d="m621.56 521.56c-3.95-2.223-8.02-2.961-11.848-6.789-1.602-4.442-0.617-6.664 1.605-8.637-2.222 11.969 5.059 12.219 10.243 15.426" fill="#fff"/>
   <path d="m641.55 510.45c2.469-5.429 1.48-12.465-5.43-18.636-1.726-1.481-8.637-0.372-10.98 1.48 10.609-0.492 13.078 5.059 16.41 17.156" fill="#ef3520"/>
   <path d="m638.96 517.36c-3.211 4.321-7.156 5.555-9.625 5.801 3.578-1.359 7.648-4.691 11.352-9.996-0.618 1.356-0.989 2.961-1.727 4.195" fill="#fdd605"/>
   <path d="m606.012,509.582c-.246-2.59-.125-5.676 3.453-9.133-3.699,4.074-6.785,10.367-11.723,11.727 1.852.988 7.528-.246 8.27-2.594" fill="#fdd605"/>
   <path d="m575.41,486.875c-.617-2.961-.742-8.516.492-8.762 1.481-1.109 6.789-.863 1.852,2.098-2.344.742-2.344,3.949-2.344,6.664" fill="#fdd605"/>
   <path d="m638.957,518.469c.863-.371 3.082.246 4.813-2.223-.743,1.234 1.234-.984-1.114-5.676-.492,5.926-2.097,7.035-3.699,7.899" fill="#fff"/>
   <path d="m613.043,501.07c.863.246 1.234-.496 1.605-2.347-6.418-7.653-13.82-15.551-21.964-23.2 8.144,9.008 14.808,17.524 20.359,25.547" fill="#fff"/>
   <path d="m605.023,479.102c-.371-3.211.372-7.528 3.332-11.848 2.469.371 2.836,1.109 4.442,2.098-3.453,2.468-4.195,6.539-6.047,10.367 0,0-1.355-.617-1.727-.617" fill="#231f20"/>
   <path d="m618.227,488.973c-5.059-.246-9.625-3.578-14.067-8.391-.246-1.234 0-2.344 1.852-3.578 2.715,4.934 7.648.617 11.472,3.699 1.235,3.949 1.36,6.543.743,8.27" fill="#231f20"/>
   <path d="m617.117,488.48-3.211.989 .989-1.606-2.836.617 2.218-1.851-3.699.742 1.481-1.73-3.579.496 1.973-1.36-3.457.125 2.715-.988-4.441-.246 2.714-.496-4.07-1.109 6.414.246 6.789,6.171" fill="#231f20"/>
   <path d="m616.5,487.617-8.762-4.812c3.207.984 7.282,4.441 9.254,2.218 .492,1.114.246,2.223-.492,2.594" fill="#fff"/>
   <path d="m612.059,465.031c2.097-3.703-.743-9.254-3.579-13.203 1.356.121 1.602,1.481 2.59,2.219 1.973,1.73 4.071,3.332 4.688,5.555-.246.617-2.715,4.566-3.699,5.429" fill="#231f20"/>
   <path d="m610.7 467.13 0.125-4.938 1.11 2.223-0.989-4.566 2.223 2.961s-2.223 4.691-2.469 4.32" fill="#231f20"/>
   <path d="m610.082,472.191c-.617-.617-1.234-1.113-1.727-1.73 2.098-3.207 3.454-6.168 3.208-10.734 1.109.738 2.222,1.48 3.21,2.218-.617,3.578-3.085,6.789-4.691,10.246" fill="#231f20"/>
   <path d="m605.27,477.621-.985-3.949 1.481,1.726-.125-4.195 1.355.988-.617-3.703 1.605,1.356-.492-3.332 1.973,1.605-4.195,9.504" fill="#231f20"/>
   <path d="m607.367,478.359 1.235-2.218-.864.121 1.727-1.356-1.481-.125 3.332-1.726-2.222-.25 2.347-1.481-2.222-.246 4.441-1.48-2.836-.125-3.457,8.886" fill="#231f20"/>
   <path d="m606.01 478.6 3.332-10.117c0.367 2.469-2.348 7.653-3.332 10.117" fill="#fff"/>
   <path d="m612.426,456.641c-1.356-1.481-1.235-3.332-1.11-5.309 .743,3.332 1.606,5.43 2.84,6.047 0,0-1.605-.738-1.73-.738" fill="#231f20"/>
  </g>
 </g>
</svg>
